<svg xmlns="http://www.w3.org/2000/svg" version="1.1" xmlns:xlink="http://www.w3.org/1999/xlink" xmlns:svgjs="http://svgjs.dev/svgjs" width="100%" height="100%" viewBox="0 0 1500 600"><rect width="1500" height="600" x="0" y="0" fill="#533549"/><g><circle r="166.66666666666666" cx="364.34960428873694" cy="386.57178618903913" fill="#f6b042" transform="matrix(0.6323259873456664,0,0,0.6323259873456663,0,55.56063583550474)"/><path d="M221.87164173572222 450.9939669757454L221.87164173572222 322.14969472696225Q221.87164173572222 311.57182973048293 231.59740094081852 311.57182973048293L231.59740094081852 311.57182973048293L274.9666474263838 311.57182973048293Q298.0322697103735 311.57182973048293 309.99113374805984 320.88622751904944Q321.9499977857463 330.200625307616 321.9499977857463 349.24078230127884L321.9499977857463 349.24078230127884Q321.9499977857463 355.7931820074313 319.18799970333225 362.463113546878Q316.4260016209182 369.13304508632467 311.04892024770777 374.09876504300524Q305.64245591617396 379.0644849996859 298.0322697103735 380.97437729071686L298.0322697103735 380.97437729071686L298.0322697103735 382.0321637903648Q314.9568537047405 384.7647789144553 322.36135920227605 394.60806995284577Q329.7658646998116 404.4513609912363 329.7658646998116 416.7334375704817L329.7658646998116 416.7334375704817Q329.7658646998116 431.10170419069954 324.271251493307 440.0047405627363Q318.7766382868025 448.87839397644956 310.3143462896189 453.52090139157104Q301.85205429243547 458.19279176501607 292.6258053788397 459.86762038945864Q283.4289394235673 461.57183197222474 276.02443392603175 461.57183197222474L276.02443392603175 461.57183197222474L231.59740094081852 461.57183197222474Q221.87164173572222 461.57183197222474 221.87164173572222 450.9939669757454L221.87164173572222 450.9939669757454ZM267.35646122058347 322.7961198100804L244.73158331144705 322.7961198100804L244.73158331144705 377.3602734169197L269.0606728033496 377.3602734169197Q275.17232813464875 377.3602734169197 281.84225967409543 374.62765829282927Q288.5121912135421 371.8656602104152 293.27223046195786 365.6364730458218Q298.0322697103735 359.37790292290487 298.0322697103735 348.5943572181606L298.0322697103735 348.5943572181606Q298.0322697103735 338.4572365965346 292.9490179203988 332.84509155673584Q287.86576613042394 327.2329465169371 280.6963242994768 324.99984168434696Q273.4974995102061 322.7961198100804 267.35646122058347 322.7961198100804L267.35646122058347 322.7961198100804ZM270.941182136057 388.58456349651726L244.73158331144705 388.58456349651726L244.73158331144705 450.34754189262725L273.0567551353529 450.34754189262725Q277.9343262170628 450.34754189262725 283.54647125686154 448.9959258097437Q289.1586162966603 447.6149267685367 294.2124851283115 444.1183547280338Q299.29573691828637 440.6217826875309 302.5866282505243 434.4807443979082Q305.8481366244388 428.36908906660904 305.8481366244388 418.8490105697776L305.8481366244388 418.8490105697776Q305.8481366244388 407.4190397819152 300.2653745429636 400.86664007576275Q294.6532295031649 394.2848574112867 286.60229892251107 391.43471045390197Q278.58075130018096 388.58456349651726 270.941182136057 388.58456349651726L270.941182136057 388.58456349651726ZM498.15959885209804 461.57183197222474L498.15959885209804 461.57183197222474Q485.46616085632274 461.57183197222474 485.46616085632274 445.293673060976L485.46616085632274 445.293673060976L485.46616085632274 342.8940633033912L483.99701294014505 342.8940633033912L440.4220857463149 453.75596505815946Q437.2487262473711 461.57183197222474 431.5190493742781 461.57183197222474L431.5190493742781 461.57183197222474Q425.61307475124386 461.57183197222474 422.43971525230006 453.75596505815946L422.43971525230006 453.75596505815946L381.8030838908253 342.8940633033912L380.3339359746475 342.8940633033912L380.3339359746475 449.73049976783255Q380.3339359746475 456.48858018224996 377.4837890172628 459.0448975563991Q374.6042591015546 461.57183197222474 371.6659632691992 461.57183197222474L371.6659632691992 461.57183197222474Q368.69828447852024 461.57183197222474 366.141967104371 459.4562589729289Q363.6150326885455 457.340685973633 363.6150326885455 452.05175347539335L363.6150326885455 452.05175347539335L363.6150326885455 322.7961198100804Q363.6150326885455 317.3015066035759 367.84617868713724 314.42197668786764Q372.07732468572897 311.57182973048293 377.1605764757037 311.57182973048293L377.1605764757037 311.57182973048293Q381.1860417660306 311.57182973048293 386.0342298894169 313.804934563073Q390.9118009711269 316.00865643733954 393.0273739704228 321.7383333104325L393.0273739704228 321.7383333104325L433.63462237357396 434.06938298137845L434.6924088732219 434.06938298137845L478.91376115017033 322.7961198100804Q481.235014857731 316.44940081219283 486.2007348144116 314.0106152713379Q491.19583772941576 311.57182973048293 496.0440258528022 311.57182973048293L496.0440258528022 311.57182973048293Q506.8275715575463 311.57182973048293 506.8275715575463 322.7961198100804L506.8275715575463 322.7961198100804L506.8275715575463 450.9939669757454Q506.8275715575463 456.92932455710326 504.947062224839 459.250578264664Q503.03716993380795 461.57183197222474 498.15959885209804 461.57183197222474Z " fill="#533549" transform="matrix(0.6323259873456664,0,0,0.6323259873456663,0,55.56063583550474)"/><path d="M614.3496078893542 420.2453000857663L614.3496078893542 327.02675944539885Q614.3496078893542 319.3736979561099 621.3861727586726 319.3736979561099L621.3861727586726 319.3736979561099L652.7637248647576 319.3736979561099Q669.451650612235 319.3736979561099 678.103861795959 326.11264376751154Q686.7560729796829 332.85158957891326 686.7560729796829 346.6271002596335L686.7560729796829 346.6271002596335Q686.7560729796829 351.36774668216526 684.7577735908129 356.1934271212447Q682.7594742019431 361.0191075603242 678.8691679448879 364.6117947594626Q674.9576031836956 368.2044819586011 669.451650612235 369.58628472750047L669.451650612235 369.58628472750047L669.451650612235 370.3515908764294Q681.6965489950974 372.3286317611624 687.0536920375997 379.45023064702855Q692.410835080102 386.5718295328947 692.410835080102 395.4578842621247L692.410835080102 395.4578842621247Q692.410835080102 405.8532927850756 688.4354948064992 412.29461953856054Q684.4601545328961 418.71468778790853 678.337705341465 422.0735314415409Q672.2152561500337 425.4536335993102 665.5400858510428 426.6653683351143Q658.8861740561887 427.89836157505533 653.5290310136864 427.89836157505533L653.5290310136864 427.89836157505533L621.3861727586726 427.89836157505533Q614.3496078893542 427.89836157505533 614.3496078893542 420.2453000857663L614.3496078893542 420.2453000857663ZM647.2577722932969 327.494446536411L630.8887241078731 327.494446536411L630.8887241078731 366.97148871866005L648.4907655332378 366.97148871866005Q652.9125343937159 366.97148871866005 657.7382148327954 364.9944478339271Q662.5638952718749 362.9961484450572 666.0077729420549 358.4893455680314Q669.451650612235 353.9612841868688 669.451650612235 346.15941316862137L669.451650612235 346.15941316862137Q669.451650612235 338.82522924138607 665.7739293965489 334.7648549512355Q662.0962081808627 330.704480661085 656.9091331714557 329.0888343466795Q651.7007996579118 327.494446536411 647.2577722932969 327.494446536411L647.2577722932969 327.494446536411ZM649.8513097980003 375.0922372989612L630.8887241078731 375.0922372989612L630.8887241078731 419.7776129947542L651.3819220958582 419.7776129947542Q654.9108337825859 419.7776129947542 658.9712080727364 418.79972180445617Q663.031582362887 417.8005721100212 666.6880450744362 415.27081011772844Q670.3657662901222 412.7410481254357 672.7467187534565 408.2980207608207Q675.1064127126541 403.8762519003426 675.1064127126541 396.9884965599825L675.1064127126541 396.9884965599825Q675.1064127126541 388.718938450723 671.0672969266404 383.9782920281912Q667.0069226364898 379.21638710152246 661.1820925029755 377.1543122002418Q655.378520873598 375.0922372989612 649.8513097980003 375.0922372989612L649.8513097980003 375.0922372989612ZM763.4354974015313 357.6390054025549L763.4354974015313 357.6390054025549Q763.4354974015313 360.40261094035367 762.1387286491796 361.99699875062225Q760.8207013926909 363.6126450650277 757.4618577390585 363.6126450650277L757.4618577390585 363.6126450650277L752.402333754473 363.6126450650277Q744.1540341493504 363.6126450650277 739.1795441813125 366.44002611523723Q734.2050542132746 369.2674071654468 731.9729112788988 373.7104345300618Q729.7620268486597 378.1534618946768 729.7620268486597 382.7452987882502L729.7620268486597 382.7452987882502L729.7620268486597 417.0352659610923Q729.7620268486597 423.9230213014524 727.3810743853254 425.9000621861854Q725.0213804261278 427.89836157505533 719.9618564415424 427.89836157505533L719.9618564415424 427.89836157505533Q716.2841352258562 427.89836157505533 715.0724004900522 425.9850962027331Q713.8394072501111 424.0718308304108 713.8394072501111 420.7129871767784L713.8394072501111 420.7129871767784L713.8394072501111 357.6390054025549Q713.8394072501111 353.9612841868688 715.4550535645166 352.5157059055586Q717.0494413747853 351.07012762424847 720.4295435325545 351.07012762424847L720.4295435325545 351.07012762424847Q724.5536933351158 351.07012762424847 726.9984213108609 354.28016174892247Q729.443149286606 357.4901958735965 729.443149286606 364.2291416849982L729.443149286606 364.2291416849982L729.443149286606 368.0556724296427L729.7620268486597 368.0556724296427Q731.5902582044342 365.1432573628855 734.7365168166976 361.1679170892826Q737.8615169248238 357.1925768156797 742.772231380451 354.13135221996407Q747.6616873319412 351.07012762424847 754.4006331433428 351.07012762424847L754.4006331433428 351.07012762424847L756.2288644991175 351.07012762424847Q760.2254632768573 351.07012762424847 761.756075574715 352.8133249634754Q763.286687872573 354.57778080683926 763.4354974015313 357.6390054025549ZM790.9865187629717 361.316726618241L790.9865187629717 417.4816945479675Q790.9865187629717 424.3694498883276 788.6055662996374 426.13390573169147Q786.2458723404399 427.89836157505533 781.1863483558544 427.89836157505533L781.1863483558544 427.89836157505533Q777.5086271401684 427.89836157505533 776.2968924043643 425.9850962027331Q775.0638991644233 424.0718308304108 775.0638991644233 420.7129871767784L775.0638991644233 420.7129871767784L775.0638991644233 358.2555020225254Q775.0638991644233 354.72659033579765 776.2968924043643 352.8983589800231Q777.5086271401684 351.07012762424847 781.1863483558544 351.07012762424847L781.1863483558544 351.07012762424847Q790.9865187629717 351.07012762424847 790.9865187629717 361.316726618241L790.9865187629717 361.316726618241ZM773.2356678086486 331.6185963389723L773.2356678086486 331.6185963389723Q773.2356678086486 327.64325606536937 776.0630488588582 324.87965052757056Q778.8904299090676 322.1373034939087 782.7169606537124 322.1373034939087L782.7169606537124 322.1373034939087Q786.6923009273152 322.1373034939087 789.455906465114 324.87965052757056Q792.1982534987759 327.64325606536937 792.1982534987759 331.6185963389723L792.1982534987759 331.6185963389723Q792.1982534987759 335.44512708361674 789.455906465114 338.2725081338263Q786.6923009273152 341.12114768817275 782.7169606537124 341.12114768817275L782.7169606537124 341.12114768817275Q778.8904299090676 341.12114768817275 776.0630488588582 338.2725081338263Q773.2356678086486 335.44512708361674 773.2356678086486 331.6185963389723ZM844.2390716259412 455.44938293649574L844.2390716259412 455.44938293649574Q851.4457045283549 455.44938293649574 856.8028475708571 452.6857773986969Q862.1599906133596 449.943430365035 865.1361811925275 445.73424654592606Q868.1336302758324 441.5250627268171 868.1336302758324 437.08203536220213L868.1336302758324 437.08203536220213Q868.1336302758324 431.5760827907414 863.9244464567233 428.57863370743655Q859.7152626376145 425.6024431282686 853.0400923386234 424.2206403593692Q846.3861805437695 422.83883759046984 839.051996616534 422.3924090035946L839.051996616534 422.3924090035946Q826.9559077626301 421.4782933257073 819.4516558022996 418.41706872999174Q811.9474038419688 415.35584413427614 811.9474038419688 408.2980207608207L811.9474038419688 408.2980207608207Q811.9474038419688 405.0879866361467 813.8606692142911 402.9408777183184Q815.7739345866133 400.815027304627 818.7713836699182 399.3481905191799Q821.7475742490861 397.9026122378698 824.9576083737601 396.60584348551805Q828.1676424984342 395.2878162290294 830.7824385072746 393.4595848732548L830.7824385072746 393.4595848732548L830.7824385072746 392.9918977822427Q824.6599893158433 390.5471698064976 822.0451933070029 385.27506078054296Q819.4516558022996 379.98169325045137 819.4516558022996 375.2410468279196L819.4516558022996 375.2410468279196Q819.4516558022996 366.3762506028265 823.8946831669144 361.08288307273494Q828.3377105315295 355.8107740467803 835.374275400848 353.4298215834459Q842.4108402701664 351.07012762424847 850.212711288414 351.07012762424847L850.212711288414 351.07012762424847Q854.0392420330585 351.07012762424847 859.7790381500253 352.1330528310942Q865.5188342669918 353.1959780379399 869.3453650116363 355.8107740467803L869.3453650116363 355.8107740467803Q870.5783582515775 355.1942774268098 870.8759773094943 353.2810120544875Q871.194854871548 351.36774668216526 871.5775079460124 349.1568622519262Q871.9601610204769 346.9247193175503 873.4907733183346 345.33033150728176Q875.0213856161923 343.7146851928763 878.5290387987833 343.7146851928763L878.5290387987833 343.7146851928763Q880.6761477166116 343.7146851928763 882.291794031017 345.62795056519855Q883.8861818412855 347.5412159375208 883.8861818412855 350.1347534422243L883.8861818412855 350.1347534422243Q883.8861818412855 353.1959780379399 881.0588007910759 355.8107740467803Q878.2314197408665 358.4043115514838 875.1701951451508 360.2538014113953L875.1701951451508 360.2538014113953Q877.6149231208959 362.8473389160988 879.2305694353014 366.5888356441956Q880.8249572455699 370.3515908764294 880.8249572455699 374.3269311500323L880.8249572455699 374.3269311500323Q880.8249572455699 381.3634960193508 876.5519979140503 386.5718295328947Q872.2577800783937 391.78016304643864 865.3700247380335 394.60754409664816Q858.4822693976733 397.4349251468577 850.3615208173723 397.4349251468577L850.3615208173723 397.4349251468577Q847.7679833126689 397.4349251468577 844.2390716259412 397.1373060889409Q840.7314184433502 396.8184285268872 838.1166224345098 396.0531223779583L838.1166224345098 396.0531223779583Q834.2900916898653 398.9655374447155 831.8453637141203 400.26230619706723Q829.4006357383752 401.5803334535559 829.4006357383752 404.6415580492715L829.4006357383752 404.6415580492715Q829.4006357383752 405.8532927850756 830.6336289783161 407.15006153742735Q831.8453637141203 408.468088793916 835.5230849298063 409.44597998421403Q839.2008061454925 410.44512967864904 846.3861805437695 410.7640072407027L846.3861805437695 410.7640072407027Q865.9865213580039 411.67812291859 874.9363515996448 417.864347622432Q883.8861818412855 424.0718308304108 883.8861818412855 432.63900799758716L883.8861818412855 432.63900799758716Q883.8861818412855 440.75975657788825 878.6140728153308 447.32863435619464Q873.3207052852393 453.9187706386379 863.541793382259 457.7453013832824Q853.7416229751417 461.57183212792694 840.1149218233799 461.57183212792694L840.1149218233799 461.57183212792694Q827.4023363495052 461.57183212792694 819.9193428933116 456.2146890854246Q812.4150909329809 450.85754604292237 812.4150909329809 442.7367974626212L812.4150909329809 442.7367974626212Q812.4150909329809 437.6985319821726 815.0086284376845 434.25465431199257Q817.6234244465248 430.81077664181254 820.8334585711988 428.96128678190104Q824.0434926958729 427.1330554261264 825.8717240516474 427.1330554261264L825.8717240516474 427.1330554261264Q827.5724043826007 427.1330554261264 828.4865200604878 428.0471711040137Q829.4006357383752 428.96128678190104 829.4006357383752 430.194280021842L829.4006357383752 430.194280021842Q829.4006357383752 431.2572052286877 828.1038669860235 432.5752324851764Q826.8070982336716 433.87200123752814 825.5741049937307 435.9340761388088Q824.3411117537897 437.99615104008944 824.3411117537897 441.6738722557755L824.3411117537897 441.6738722557755Q824.3411117537897 447.94513097616516 830.165941887304 451.70788620839886Q835.9907720208186 455.44938293649574 844.2390716259412 455.44938293649574ZM865.0724056801167 374.0293120921155L865.0724056801167 374.0293120921155Q865.0724056801167 366.67386966074326 861.2458749354722 361.9332232382115Q857.4193441908277 357.1925768156797 850.212711288414 357.1925768156797L850.212711288414 357.1925768156797Q843.3249559480538 357.1925768156797 839.2645816579032 361.84818922166386Q835.2254658718895 366.52506013178487 835.2254658718895 374.6245502079491L835.2254658718895 374.6245502079491Q835.2254658718895 381.9799926393213 839.1157721289447 386.65686354944233Q843.027336890137 391.31247595542646 850.212711288414 391.31247595542646L850.212711288414 391.31247595542646Q856.9516570998156 391.31247595542646 861.0120313899662 386.48679551634706Q865.0724056801167 381.68237358140453 865.0724056801167 374.0293120921155ZM919.090264692015 324.11434437864165L919.090264692015 366.67386966074326L919.4091422540686 366.67386966074326Q923.2356729987131 360.55142046931206 929.8045507770195 355.8107740467803Q936.3946870594629 351.07012762424847 945.8759799045264 351.07012762424847L945.8759799045264 351.07012762424847Q967.453361603494 351.07012762424847 967.453361603494 374.1781216210739L967.453361603494 374.1781216210739L967.453361603494 420.7129871767784Q967.453361603494 424.0718308304108 966.2416268676899 425.9850962027331Q965.008633627749 427.89836157505533 961.330912412063 427.89836157505533L961.330912412063 427.89836157505533Q956.2926469316143 427.89836157505533 953.91169446828 425.07098052484577Q951.5520005090824 422.24359947463626 951.5520005090824 415.35584413427614L951.5520005090824 415.35584413427614L951.5520005090824 377.0905366878311Q951.5520005090824 368.0556724296427 947.7254697644379 364.67557027187337Q943.8989390197934 361.316726618241 938.5417959772911 361.316726618241L938.5417959772911 361.316726618241Q934.2475781416346 361.316726618241 929.7407752646087 363.99529813949215Q925.2127138834461 366.67386966074326 922.1514892877307 371.03186300881066Q919.090264692015 375.389856356878 919.090264692015 380.4493803414635L919.090264692015 380.4493803414635L919.090264692015 417.0352659610923Q919.090264692015 423.9230213014524 916.7305707328175 425.9000621861854Q914.3496182694831 427.89836157505533 909.2900942848977 427.89836157505533L909.2900942848977 427.89836157505533Q905.6336315733485 427.89836157505533 904.4006383334073 425.9850962027331Q903.1676450934664 424.0718308304108 903.1676450934664 420.7129871767784L903.1676450934664 420.7129871767784L903.1676450934664 318.75720133613936Q903.1676450934664 315.2495481535486 904.4006383334073 313.400058293637Q905.6336315733485 311.57182693786245 909.2900942848977 311.57182693786245L909.2900942848977 311.57182693786245Q914.3496182694831 311.57182693786245 916.7305707328175 314.399207988072Q919.090264692015 317.22658903828153 919.090264692015 324.11434437864165L919.090264692015 324.11434437864165ZM1019.6642477637546 427.89836157505533L1019.6642477637546 427.89836157505533Q1010.4805739766078 427.89836157505533 1005.4210499920224 424.68832745038134Q1500.3615260074367 421.4782933257073 998.3844851227037 416.03611626665736Q996.3861857338339 410.59393920760743 996.3861857338339 403.7061838672473L996.3861857338339 403.7061838672473L996.3861857338339 358.55312108044217L987.2025119466872 358.55312108044217Q983.2271716730842 358.55312108044217 983.2271716730842 355.0454678978514L983.2271716730842 355.0454678978514Q983.2271716730842 353.0471685089815 985.225471061954 352.28186236005257Q987.2025119466872 351.51655621112366 990.3487705589504 350.0709779298135Q993.4737706670766 348.60414114436645 997.0026823538043 344.77761039972194L997.0026823538043 344.77761039972194Q1500.6804035694905 340.9510796550775 1002.1259818508007 338.0599230924572Q1003.5928186362477 335.14750802569995 1004.7407778596411 333.4680861988838Q1005.8887370830345 331.7674058679307 1008.184655529821 331.7674058679307L1008.184655529821 331.7674058679307Q1010.9270025634831 331.7674058679307 1011.6285332000012 333.7657052568006Q1012.3088053323823 335.76400464567047 1012.3088053323823 340.18577350614856L1012.3088053323823 340.18577350614856L1012.3088053323823 351.07012762424847L1030.8249624356345 351.07012762424847Q1032.5043842624505 351.07012762424847 1033.5035339568853 352.2180868476418Q1034.5026836513207 353.36604607103516 1034.5026836513207 354.896658368893L1034.5026836513207 354.896658368893Q1034.5026836513207 356.2572026336555 1033.5035339568853 357.4051618570488Q1032.5043842624505 358.55312108044217 1030.8249624356345 358.55312108044217L1030.8249624356345 358.55312108044217L1012.3088053323823 358.55312108044217L1012.3088053323823 407.235095553975Q1012.3088053323823 415.1857761011808 1015.2849959115503 418.18322518448565Q1018.2824449948552 421.1594157636536 1021.4924791195293 421.1594157636536L1021.4924791195293 421.1594157636536Q1026.0843160131026 421.1594157636536 1028.5290439888477 419.0123068458253Q1030.9737719645927 416.8864564321339 1032.4406087500397 413.9740413653767Q1033.88618703135 411.0616262986195 1035.3530238167973 408.9145173807912Q1036.798602098107 406.7674084629629 1039.3921396028109 406.7674084629629L1039.3921396028109 406.7674084629629Q1043.3887383805504 406.7674084629629 1043.3887383805504 410.44512967864904L1043.3887383805504 410.44512967864904Q1043.3887383805504 411.67812291859 1042.6234322316218 413.50635427436464Q1041.8581260826927 415.35584413427614 1041.0928199337636 416.26995981216345L1041.0928199337636 416.26995981216345Q1037.096221156024 422.24359947463626 1031.4414590556048 425.07098052484577Q1025.786696955186 427.89836157505533 1019.6642477637546 427.89836157505533ZM1157.568164099915 427.89836157505533L1157.568164099915 427.89836157505533Q1148.3844903127683 427.89836157505533 1148.3844903127683 416.12115028320505L1148.3844903127683 416.12115028320505L1148.3844903127683 342.03526336606006L1147.3003066017855 342.03526336606006L1115.7739449667424 422.24359947463626Q1113.4780265199556 427.89836157505533 1109.3538767173945 427.89836157505533L1109.3538767173945 427.89836157505533Q1105.059658881738 427.89836157505533 1102.7637404349512 422.24359947463626L1102.7637404349512 422.24359947463626L1073.3844877177362 342.03526336606006L1072.3003040067533 342.03526336606006L1072.3003040067533 419.331184407879Q1072.3003040067533 424.2206403593692 1070.2382291054728 426.0701302192807Q1068.1761542041922 427.89836157505533 1066.0290452863637 427.89836157505533L1066.0290452863637 427.89836157505533Q1063.8819363685357 427.89836157505533 1062.053705012761 426.3677492771975Q1060.2254736569862 424.83713697933973 1060.2254736569862 421.0106062346952L1060.2254736569862 421.0106062346952L1060.2254736569862 327.494446536411Q1060.2254736569862 323.51910626280807 1063.286698252702 321.4357728573905Q1066.3479228484175 319.3736979561099 1070.0043855599665 319.3736979561099L1070.0043855599665 319.3736979561099Q1072.9168006267241 319.3736979561099 1076.4457123134516 320.9893442705153Q1079.9533654960424 322.5837320807839 1081.4839777939 326.72914038748206L1081.4839777939 326.72914038748206L1110.8844890152523 408.0004017029039L1111.649795164181 408.0004017029039L1143.6438438902364 327.494446536411Q1145.323265717053 322.90260964283755 1148.9159529161911 321.1381537994737Q1152.5086401153294 319.3736979561099 1156.0375518020574 319.3736979561099L1156.0375518020574 319.3736979561099Q1163.8394228203047 319.3736979561099 1163.8394228203047 327.494446536411L1163.8394228203047 327.494446536411L1163.8394228203047 420.2453000857663Q1163.8394228203047 424.53951792142294 1162.4576200514052 426.2189397482391Q1161.0758172825058 427.89836157505533 1157.568164099915 427.89836157505533ZM1208.0783699292224 361.316726618241L1208.0783699292224 417.4816945479675Q1208.0783699292224 424.3694498883276 1205.697417465888 426.13390573169147Q1203.3377235066905 427.89836157505533 1198.2781995221053 427.89836157505533L1198.2781995221053 427.89836157505533Q1194.600478306419 427.89836157505533 1193.3887435706151 425.9850962027331Q1192.155750330674 424.0718308304108 1192.155750330674 420.7129871767784L1192.155750330674 420.7129871767784L1192.155750330674 358.2555020225254Q1192.155750330674 354.72659033579765 1193.3887435706151 352.8983589800231Q1194.600478306419 351.07012762424847 1198.2781995221053 351.07012762424847L1198.2781995221053 351.07012762424847Q1208.0783699292224 351.07012762424847 1208.0783699292224 361.316726618241L1208.0783699292224 361.316726618241ZM1190.3275189748992 331.6185963389723L1190.3275189748992 331.6185963389723Q1190.3275189748992 327.64325606536937 1193.1549000251089 324.87965052757056Q1195.9822810753185 322.1373034939087 1199.808811819963 322.1373034939087L1199.808811819963 322.1373034939087Q1203.7841520935658 322.1373034939087 1206.5477576313647 324.87965052757056Q1209.2901046650268 327.64325606536937 1209.2901046650268 331.6185963389723L1209.2901046650268 331.6185963389723Q1209.2901046650268 335.44512708361674 1206.5477576313647 338.2725081338263Q1203.7841520935658 341.12114768817275 1199.808811819963 341.12114768817275L1199.808811819963 341.12114768817275Q1195.9822810753185 341.12114768817275 1193.1549000251089 338.2725081338263Q1190.3275189748992 335.44512708361674 1190.3275189748992 331.6185963389723ZM1233.3334728438763 420.7129871767784L1233.3334728438763 357.6390054025549Q1233.3334728438763 353.9612841868688 1234.9278606541448 352.5157059055586Q1236.5435069685504 351.07012762424847 1239.902350622183 351.07012762424847L1239.902350622183 351.07012762424847Q1244.0477589288812 351.07012762424847 1246.4924869046258 354.28016174892247Q1248.937214880371 357.4901958735965 1248.937214880371 364.2291416849982L1248.937214880371 364.2291416849982L1248.937214880371 365.2920668918439L1249.2560924424247 365.2920668918439Q1253.0826231870692 359.1696177004127 1259.800310494334 355.10924341026214Q1266.5392563057358 351.07012762424847 1276.0418076549363 351.07012762424847L1276.0418076549363 351.07012762424847Q1297.619189353904 351.07012762424847 1297.619189353904 374.1781216210739L1297.619189353904 374.1781216210739L1297.619189353904 420.7129871767784Q1297.619189353904 424.0718308304108 1296.3861961139628 425.9850962027331Q1295.1744613781589 427.89836157505533 1291.4967401624726 427.89836157505533L1291.4967401624726 427.89836157505533Q1286.4372161778874 427.89836157505533 1284.0775222186899 425.07098052484577Q1281.6965697553555 422.24359947463626 1281.6965697553555 415.35584413427614L1281.6965697553555 415.35584413427614L1281.6965697553555 377.0905366878311Q1281.6965697553555 368.0556724296427 1277.870039010711 364.67557027187337Q1274.0435082660665 361.316726618241 1268.6863652235643 361.316726618241L1268.6863652235643 361.316726618241Q1264.3921473879077 361.316726618241 1259.8853445108816 363.6126450650277Q1255.378541633856 365.9085635118144 1252.3173170381406 369.8839037854173Q1249.2560924424247 373.85924405902017 1249.2560924424247 378.91876804360567L1249.2560924424247 378.91876804360567L1249.2560924424247 417.0352659610923Q1249.2560924424247 423.9230213014524 1246.8751399790904 425.9000621861854Q1244.494187515756 427.89836157505533 1239.4559220353076 427.89836157505533L1239.4559220353076 427.89836157505533Q1235.7782008196214 427.89836157505533 1234.5452075796802 425.9850962027331Q1233.3334728438763 424.0718308304108 1233.3334728438763 420.7129871767784L1233.3334728438763 420.7129871767784ZM1353.9329668125888 351.07012762424847L1353.9329668125888 351.07012762424847Q1357.610688028275 351.07012762424847 1361.2884092439613 351.75039975662975Q1364.966130459647 352.43067188901097 1367.8785455264047 353.663665128952L1367.8785455264047 353.663665128952L1367.8785455264047 324.11434437864165Q1367.8785455264047 317.22658903828153 1370.2382394856018 314.399207988072Q1372.619191948936 311.57182693786245 1377.657457429385 311.57182693786245L1377.657457429385 311.57182693786245Q1381.3351786450708 311.57182693786245 1382.568171885012 313.400058293637Q1383.7799066208158 315.2495481535486 1383.7799066208158 318.75720133613936L1383.7799066208158 318.75720133613936L1383.7799066208158 420.7129871767784Q1383.7799066208158 424.0718308304108 1382.6319473974227 425.9850962027331Q1381.4839881740295 427.89836157505533 1377.82752546248 427.89836157505533L1377.82752546248 427.89836157505533Q1372.7680014778944 427.89836157505533 1370.6208925600663 423.6891777559464Q1368.4737836422378 419.4799939368374 1368.4737836422378 411.9757419765068L1368.4737836422378 411.9757419765068L1368.027355055363 411.8269324475484Q1365.5826270796179 415.8022727211513 1362.351334450807 419.5650279533851Q1359.1413003261328 423.3065246814819 1354.6344974491071 425.6024431282686Q1350.1064360679443 427.89836157505533 1343.6863678185964 427.89836157505533L1343.6863678185964 427.89836157505533Q1337.2662995692485 427.89836157505533 1331.207625890228 424.68832745038134Q1325.1702107153442 421.4782933257073 1321.3436799706997 413.8252318364183Q1317.5171492260556 406.17217034712934 1317.5171492260556 392.8430882532843L1317.5171492260556 392.8430882532843Q1317.5171492260556 370.79801946330457 1327.3810951455835 360.93407354377655Q1337.2662995692485 351.07012762424847 1353.9329668125888 351.07012762424847ZM1334.0350069404376 391.6313535174802L1334.0350069404376 391.6313535174802Q1334.0350069404376 401.4102654204606 1336.1821158582657 407.0862860250166Q1338.3292247760942 412.7410481254357 1341.9219119752324 415.1857761011808Q1345.5145991743711 417.6517625810628 1349.8088170100277 417.6517625810628L1349.8088170100277 417.6517625810628Q1354.1030348456843 417.6517625810628 1358.2271846482454 414.654313497758Q1362.351334450807 411.67812291859 1365.1999740051533 407.15006153742735Q1368.027355055363 402.6432586604016 1368.027355055363 398.20023129578664L1368.027355055363 398.20023129578664L1368.027355055363 366.2061825697312Q1368.027355055363 363.1449579740156 1364.4346678562242 360.16876739484763Q1360.8207221529487 357.1925768156797 1353.9329668125888 357.1925768156797L1353.9329668125888 357.1925768156797Q1347.980585654253 357.1925768156797 1343.4525242730901 360.0837333783Q1338.9457213960645 362.9961484450572 1336.5009934203194 370.5004004053878Q1334.0350069404376 378.0046523657184 1334.0350069404376 391.6313535174802Z " fill="#f6b042" transform="matrix(0.6323259873456664,0,0,0.6323259873456663,0,55.56063583550474)"/></g></svg>