<svg xmlns="http://www.w3.org/2000/svg" version="1.1" xmlns:xlink="http://www.w3.org/1999/xlink" viewBox="0 0 10.315943071331997 1.8781782585352254"><g transform="matrix(1,0,0,1,0.33983912926761306,0.5840891292676127)"><rect width="10.315943071331997" height="10.315943071331997" x="-0.33983912926761306" y="-4.802971535665998" fill="#803654"></rect><g clip-path="url(#SvgjsClipPath1002)"><g clip-path="url(#SvgjsClipPath1000295723fa-2976-4daf-a394-d0e11264bd32)"><path d=" M 7.630219147936204 -0.08531406871879754 C 7.595739496971927 -0.06754035282403095 7.564267737272627 -0.04373645273114407 7.535271007116262 -0.018041819346523158 C 7.5285227968911395 -0.012061012296391616 7.52197826740147 -0.005860065461477076 7.515281491705502 0.00017423349897557894 C 7.51294636408187 0.002276877050827797 7.508434527184402 0.004941185661051478 7.507584828762763 0.00811572480049183 C 7.507251533013839 0.006720820369810976 7.506488244601181 0.008372897446266292 7.505751702143683 0.008868726307319497 C 7.504134600547053 0.00995913832540335 7.502733523972873 0.011707912316669955 7.501365365497353 0.0131007593661846 C 7.4972670622142905 0.017271070990063697 7.493279857514203 0.021556595959249802 7.489185668993473 0.025737194488959947 C 7.476652102929007 0.03853410534269863 7.465877597761639 0.052849363497089796 7.454251336791466 0.06643013657514912 C 7.441907049794291 0.08085443593134878 7.431899947801914 0.09717564072278101 7.422296092518112 0.11348655860838236 C 7.41248032697419 0.13015751819806792 7.4028847012150525 0.1470979947205252 7.39537937472077 0.16497457967360152 C 7.390756439240327 0.17598568367508216 7.386411250217322 0.18730128008915975 7.382358209319916 0.19853458125658946 C 7.380767853678447 0.20293943433341494 7.37946758878141 0.20752327957169947 7.377609773588336 0.211823206209049 C 7.373622568888248 0.2268564903904426 7.3686519359907185 0.24150915905609 7.36555763471676 0.2567934437397596 C 7.353285356060401 0.3173997781335591 7.350044980723642 0.38002851821372924 7.359504819325812 0.4413117310112072 C 7.3647346822502815 0.47519885619962027 7.376367115363953 0.5073372073967668 7.3862569466298575 0.539994018647795 C 7.387791752979839 0.5393994354907641 7.389252493607838 0.5373420543245682 7.390367594199916 0.5361652322975041 C 7.393451608568045 0.5329104552925823 7.396558254129 0.529674194718156 7.3996690144522885 0.5264420489060622 C 7.41051758534164 0.5151737722588072 7.421650074831926 0.5041750125443238 7.432624145972415 0.4930281213858742 C 7.436134038241945 0.48946267982485675 7.439569864789492 0.48581288563602504 7.443147650637507 0.48231945241582436 C 7.444209259319264 0.4812866470703941 7.447013469848789 0.47960370927644586 7.447361167265877 0.4782170343704298 C 7.448986498387171 0.4775627871595795 7.450537763786483 0.4752091431054513 7.451786594154363 0.47395414059407176 C 7.45523887975124 0.4704833385666994 7.458861927984912 0.4671956434631182 7.462336844774616 0.4637515873909062 C 7.474294344112547 0.45190107187361767 7.486087252957182 0.4398612772890392 7.497804038698668 0.42777210555647177 C 7.501577275757471 0.42388159777119544 7.505259988044962 0.4198964504522738 7.509072315345923 0.41604709029032133 C 7.5101256945030155 0.41498342422739803 7.512940191938371 0.4131317811778216 7.5131397579114925 0.4116833848368197 C 7.514902933570922 0.41136449075605935 7.516991175454611 0.40811794327580214 7.518233833678994 0.4068176783787663 C 7.522144915275932 0.4027337767638674 7.526204128316836 0.3987856623059374 7.530158414918265 0.3947429083143625 C 7.5428874321935195 0.38173408720050567 7.555507408266965 0.3686162248848403 7.568374270080354 0.35574319092795254 C 7.5720343511750166 0.3520810524521238 7.575680030601516 0.3484065696892979 7.579370972413671 0.34477734931212817 C 7.58078850803718 0.34338244488144737 7.58342812807341 0.34192787639694694 7.5842531379210545 0.3401420695446888 C 7.594145026568125 0.3309435183506268 7.603362094192683 0.32088909659142734 7.612980351144648 0.311392225128267 C 7.641682875794247 0.28304562742041944 7.669862825627633 0.2541723401340259 7.69847482550592 0.22573933241719818 C 7.708988043265181 0.2152898934740891 7.719063038836042 0.20441457662957746 7.729590658263467 0.19397748197346548 C 7.73239075403066 0.19120207478026724 7.735151759555695 0.18838346258257882 7.737980658659214 0.18563891610687344 C 7.738959972094324 0.1846904633892571 7.741212804471308 0.1833325918195678 7.741558444507229 0.1820446712095291 C 7.716059262333396 0.15876334593285601 7.69015683345099 0.1358585214095968 7.665077357035061 0.11212457227636063 C 7.653564252029029 0.10122662423902085 7.640034913480124 0.09226672926023755 7.631328076384784 0.07875179237949653 C 7.617916008562352 0.05793726712109237 7.619860233764407 0.030331326633075417 7.635541593013153 0.011407534666405317 C 7.645569268817192 -0.0006919239719929415 7.660230167007504 -0.007748741372044926 7.675699615996131 -0.009546892511300198 C 7.684013493288729 -0.010511804278246079 7.692673010617248 -0.00988224564139012 7.701034207676668 -0.009915163740049249 C 7.718865530244088 -0.009985114699699926 7.736696852811508 -0.009898704690719684 7.754528175378928 -0.009892532547221111 C 7.825166300339099 -0.009867843973226764 7.895802367918104 -0.009878130879057728 7.966438435497108 -0.009861671829728164 C 7.98838452039692 -0.009857557067395772 8.010328547915567 -0.009874016116725337 8.032274632815378 -0.009845212780398599 C 8.039323220690765 -0.009834925874567607 8.046373865947318 -0.009818466825238042 8.053424511203872 -0.009874016116725337 C 8.056144369105583 -0.009896647309553502 8.059662490899777 -0.009172449139052519 8.062291824030176 -0.00985549968622959 C 8.064048827546108 -0.010310180923958884 8.065956019887171 -0.01281401380321931 8.067299489788697 -0.013976434162119994 C 8.072087015762435 -0.0181158850685062 8.076619426471565 -0.02255365624399086 8.081088058364543 -0.02703257504279938 C 8.095880628949491 -0.041862178488739576 8.11082956050307 -0.056529248822550365 8.125541893222538 -0.07141028679764547 C 8.14764433909098 -0.0937637331683642 8.170331081210623 -0.11552876852555088 8.192452043509562 -0.13786575584694005 C 8.1991261880127 -0.1446057365473979 8.20616860374459 -0.1511338069877376 8.212591747745453 -0.15810009961647697 C 8.223074104787221 -0.16946918794087568 8.234188077847012 -0.18027043906340426 8.245452239731934 -0.1908577225446485 C 8.26262108556384 -0.20699170564995695 8.280666375772544 -0.22232742486278137 8.302530165425708 -0.23177491917795306 C 8.320266848459484 -0.2394366066408667 8.339369632587612 -0.24334563085663893 8.358616433397376 -0.24414183736795678 C 8.420704082230836 -0.24670739168220307 8.478930026615346 -0.20334396884229156 8.49750612116493 -0.14483822061917806 C 8.507200501220044 -0.11430256935049812 8.506190327067443 -0.08207780814437132 8.496242889128887 -0.05179315737796733 C 8.482419345073215 -0.009713540385762054 8.44950124641408 0.02020283915189286 8.418743397979451 0.05018299750569993 C 8.378097775660084 0.08980198662313482 8.33728344808509 0.12924609834144313 8.297051359380129 0.1692889079791144 C 8.287077175486411 0.1792178294871759 8.276923999431233 0.188963644071446 8.266863405528536 0.19880409818936118 C 8.262063535267801 0.2034969846294541 8.25558484197545 0.20840383871083135 8.251924760880787 0.21402666143804483 C 8.251449505831395 0.22242489135845656 8.252037916844928 0.23103297415782031 8.252046146369592 0.23945177788989408 C 8.252060548037756 0.2572831004573141 8.252044088988427 0.27511236564356806 8.252044088988427 0.292943688210988 C 8.252037916844928 0.34780787176993483 8.25207494970592 0.40266999794771535 8.252056433275424 0.4575341815066621 C 8.252050261131926 0.4742216001456772 8.25205231851309 0.49090901878469245 8.252068777562421 0.5075964374237076 C 8.252077007087085 0.5173299077209805 8.25261604095263 0.527269116134873 8.251770457293322 0.5369737830958192 C 8.24893744342747 0.5694577743288867 8.22175532345969 0.5942697911932096 8.189306307706447 0.5949343253098907 C 8.18148414451257 0.5950948010408541 8.174198957803071 0.5939755856864435 8.166985779434388 0.5907907596411721 C 8.148440545602298 0.5826023825997124 8.13506962540319 0.5652072248395259 8.121258425634517 0.551001007886943 C 8.0971520905102 0.5262075074531158 8.073072501341043 0.5013255396291423 8.048772772387103 0.4767336625496024 C 8.014334269046149 0.5102010819801115 7.981103448449753 0.5448268070071891 7.946959150615565 0.5786028336126274 C 7.938844839296088 0.5866286775419578 7.930821052747924 0.5947450462426007 7.922684110235619 0.6027420868356044 C 7.920853040997705 0.6045422953560258 7.919009627472794 0.6063322169706162 7.917199132046541 0.6081529993026995 C 7.916987221786423 0.6083649095628179 7.915592317355742 0.6096301989800281 7.915586145212243 0.6097433549441691 C 7.9155717435440796 0.6100828228365913 7.916063457642801 0.6102247821370588 7.916302113858079 0.6104634383523375 C 7.9147817091762604 0.6094923544418931 7.9138641171761375 0.6116238013300721 7.912765475633389 0.6128849759849502 C 7.909689690789926 0.6164174994473086 7.906095445892582 0.6196475878782362 7.902793349120837 0.6229784879863074 C 7.891080678141684 0.6347878558802722 7.879265138104221 0.6464943547159268 7.867587442604893 0.6583386980897168 C 7.864793518981198 0.6611717119555687 7.861972849402344 0.6639759224850936 7.85920567173381 0.6668315675437735 C 7.858133776146222 0.6679384386111871 7.856636002657232 0.6686996696426795 7.857214126764933 0.6702241890868308 C 7.855745156612269 0.6692345887458904 7.854823449849813 0.6712343632394329 7.853689832827239 0.6723864966925026 C 7.850694285849258 0.6754314208184726 7.847665820772617 0.6784434268457833 7.844680560700467 0.6815006952587506 C 7.831807526743579 0.6946864511529003 7.81891391897503 0.707894838239878 7.805839261663854 0.7208810281609068 C 7.802370517017648 0.7243271416142849 7.798903829752608 0.727773255067663 7.795352789859754 0.7311350158932273 C 7.794412566666802 0.7320258619381901 7.791606298756111 0.7339145378487579 7.792279062397457 0.7350275810596698 C 7.790814207007125 0.734566727678442 7.789380212334287 0.7366961171854549 7.788316546271363 0.7377556684860458 C 7.7847346456610165 0.7413231674282295 7.781245327203148 0.744983248522892 7.777667541355133 0.7485569196085744 C 7.765755304402859 0.7604526975115191 7.754225740347497 0.7727229187867117 7.742373167449042 0.7846783607434762 C 7.739252120219923 0.7878261539277558 7.736102269654477 0.7909410290133765 7.732931845277369 0.7940373876685014 C 7.731890810407274 0.7950557913457685 7.729874576864402 0.7961955805118408 7.7296688387477825 0.7976192882788486 C 7.727743129976223 0.7975987144671866 7.724877198011712 0.8016538127457586 7.723498752630361 0.8029952252661186 C 7.718536349257496 0.807821841482014 7.713571888503465 0.8126443429355774 7.708607427749435 0.8174668443891406 C 7.707303048090067 0.8187341911875172 7.703780811533539 0.8211701304882932 7.703519524125432 0.8229641668652161 C 7.732944189564367 0.8335781963016209 7.764010645173925 0.8403346360514081 7.795064756496486 0.8443959064734792 C 7.805555343062919 0.8457681797113317 7.816161142974659 0.8467351488594439 7.826684647639751 0.8477885280165363 C 7.830527835658206 0.848175315675781 7.834622024178935 0.847704175388722 7.838397318618905 0.8484366030838879 C 7.840419724305275 0.8483337340255781 7.842590261435612 0.8490414731467495 7.844625011408979 0.8491916619718816 C 7.8479620836605495 0.8494385477118251 7.851346475678942 0.8493603672275101 7.85468972007401 0.8493727115145071 C 7.871973779251222 0.849434432949493 7.88930310081409 0.8490764486265749 7.906543954986812 0.847807044447032 C 7.931631660927406 0.8459595161597881 7.956355210401582 0.8399972255401522 7.980864792234474 0.8346398049833779 C 7.993885957635328 0.8317944468305289 8.006894778749185 0.8284717762471228 8.019461262912309 0.8239969722106464 C 8.023218040921783 0.8226596744526189 8.029867496850928 0.8213306062192565 8.032490657837828 0.8182054442278051 C 8.035179655022047 0.8177281317972476 8.037858365300433 0.8161912680660992 8.04042391961468 0.8152469301108152 C 8.046425300476473 0.8130373027383209 8.052247689176808 0.8103565350787674 8.05809888121347 0.8077848086210224 C 8.080872033342091 0.797771534485147 8.102147411981724 0.7853387800978249 8.122770600791672 0.7715152360421547 C 8.129446802675977 0.7670383746245124 8.136085971699291 0.7624504146238955 8.142579066659806 0.7577122657981461 C 8.144095356579292 0.7566033373495666 8.14835825035565 0.7546693990533424 8.14865039848125 0.7527416329006169 C 8.149247039019446 0.7529946907840588 8.149880712418636 0.7523178123803804 8.150393000329018 0.7519433690081327 C 8.15198747073282 0.7507768338868999 8.153462613028983 0.7494724542275315 8.155011821047127 0.7482503698148113 C 8.16133826813318 0.7432653352491185 8.167561846160924 0.738177431625116 8.173688727273854 0.7329537408441444 C 8.199977943815506 0.7105488599442709 8.222481579011358 0.6851648911157455 8.244616942978459 0.6587769202781164 C 8.243526530960375 0.6601368492289721 8.246275192198413 0.6564376778921517 8.246808053920457 0.6556805616229917 C 8.248480704808575 0.6532960568513706 8.250293257615994 0.6510164785192254 8.251992654459272 0.6486546049404327 C 8.257097017132603 0.6415566399170567 8.262435921258882 0.6345718308578214 8.267172012703465 0.6272208079510035 C 8.281625115395991 0.6047809515713045 8.29376777903888 0.5804976816666938 8.304332431327296 0.5560292474571258 C 8.324445389608027 0.5094501378544503 8.337686694793664 0.46036719537251386 8.343601665646478 0.4099551846572151 C 8.34544507917139 0.39425119421564164 8.344620069323744 0.3781892194511501 8.344642700516573 0.36240910590642733 C 8.344657102184737 0.3532743335285174 8.344058404265374 0.34380420802051753 8.347130074346504 0.3350500511583539 C 8.355139459226503 0.31221517759474543 8.381827807714398 0.3010518273869663 8.402685537977291 0.31483833858164506 C 8.407248809403916 0.31785240199012216 8.411196923861844 0.32196304956018157 8.414210987270321 0.32651397669980703 C 8.420368729100746 0.3358092248086802 8.419640416167912 0.34545217033464043 8.419313292562487 0.3561094047755354 C 8.418959423001901 0.3675916490640749 8.418685791306798 0.3791026966889411 8.418552061530995 0.3905890557398129 C 8.418117954104927 0.42731125217524396 8.411882031790189 0.4633442259199993 8.402693767501956 0.49884433794271005 C 8.39477490739327 0.5294458254087082 8.385232773544452 0.559495934722166 8.372195149094269 0.5883404186722327 C 8.353937948625445 0.6287329831081574 8.332693430703307 0.6671525190057002 8.305529827166023 0.70235019599698 C 8.270867069277953 0.7472669416173694 8.2291433792275 0.7862522573356159 8.183125934683195 0.819277339815393 C 8.17371341584785 0.8260337795651804 8.164477831792796 0.8330515067230746 8.154655894105376 0.8392133633158314 C 8.145179596453877 0.8451550801238052 8.135184838748497 0.8502676723218021 8.1254102208279 0.8556929864570608 C 8.11651410466527 0.8606327586370972 8.107776406852436 0.8657494655974263 8.09848733088706 0.8699526953199648 C 8.052074869158847 0.8909564996456589 8.002942549528923 0.9054960123471656 7.95282474432039 0.9142275380165013 C 7.921785034665992 0.919634335721264 7.890648628096782 0.9234034580177348 7.8591007452943344 0.9234178596858984 C 7.82781003513766 0.9234322613540615 7.797216777196327 0.9198688771742103 7.766370461371552 0.9149229328506754 C 7.750345519468052 0.9123532637740965 7.734225938030907 0.9098185701773434 7.718509603302336 0.9056955783202867 C 7.703029867407878 0.9016363652793822 7.687655057952895 0.8970237167047708 7.672502445663863 0.8918864359327796 C 7.666702688156356 0.8899195795378962 7.660830922308033 0.8881852072147933 7.654987959796037 0.8863582527392111 C 7.651638543257469 0.8853131031067836 7.648087503364615 0.8836939441289875 7.644567324189254 0.8834840912500352 C 7.627958086034554 0.8990049747678175 7.61243308775444 0.9158076067521397 7.596476039429424 0.9319971391489352 C 7.587878243535892 0.940720435293606 7.579498530045976 0.9510628904160732 7.566841521111538 0.953457682093525 C 7.558093536392874 0.9551118165511465 7.548567861593386 0.9542950362281666 7.540725124587848 0.9498757814831782 C 7.525286536316713 0.9411771739125014 7.519488836190373 0.920967518716959 7.524097370002652 0.9046072236833691 C 7.5262370464154955 0.8970134297989398 7.531547147205448 0.8912239591972646 7.536830502040239 0.8856299398063776 C 7.544101287081575 0.8779332768636388 7.551721826921164 0.870543163714663 7.55927447318227 0.8631242472293605 C 7.562354372788065 0.8600978395338863 7.565471305254852 0.857112579461736 7.5684812539009965 0.8540162208066111 C 7.5702135688429335 0.8522324713355194 7.5720343511750166 0.8498685403755604 7.5741061340093765 0.8485086114247045 C 7.57666757356129 0.8441037583478792 7.58115677926593 0.8402873162845856 7.58462346653097 0.8365778580419345 C 7.5920650142091 0.8286116781664239 7.599595029277378 0.8207607116362201 7.607256716740292 0.8130043846396617 C 7.629789155272469 0.7901941996500474 7.652333938091644 0.7673840146604334 7.675158524749421 0.7448659777964188 C 7.687949263459662 0.7322480591041391 7.701161765308972 0.7199325754432904 7.7137837987635836 0.7071706400693771 C 7.734585979734991 0.6861421471696887 7.75482443826686 0.6644902677766427 7.775721258771912 0.6435152667872752 C 7.809258629162072 0.6098503387648111 7.8434029269962595 0.5767717643747132 7.876629632830324 0.5428496637064748 C 7.896287909873326 0.5227799104302335 7.916164269319944 0.5030043626607583 7.936061202578225 0.48317532298096194 C 7.942321813466959 0.47693734328505594 7.948598883405023 0.47070965049498087 7.954766912141278 0.4643811460277622 C 7.956853096643801 0.46224146961491835 7.960496718689134 0.46000509628726344 7.961860762402322 0.45737370577569886 C 7.962325730545882 0.45457978215200473 7.9619471724113025 0.451452562779387 7.961953344554801 0.4486174915323689 C 7.961963631460632 0.4431325133432907 7.961965688841798 0.43764547777304613 7.961965688841798 0.4321604995839678 C 7.961961574079465 0.41732678137569507 7.962465632465184 0.4023963662526114 7.96182372954133 0.3875749923313359 C 7.962593190097488 0.3796911077024731 7.961953344554801 0.3714986158986809 7.961949229792468 0.36357975578999285 C 7.961945115030137 0.34667013998502844 7.961689999765528 0.32973583560606995 7.961934828124305 0.31283033456343784 C 7.957484712661824 0.3158176520167543 7.954141468266755 0.3207018749053036 7.950312681916465 0.3244257348161182 C 7.941070925717913 0.33341649051239436 7.931868259761518 0.34244222168849586 7.922733487383608 0.35153996120541425 C 7.896191212958515 0.37797525180986574 7.869525495663449 0.40428915692551154 7.8430902050589975 0.43083143135060525 C 7.819317165683604 0.4547011676408103 7.7952704946131055 0.4781758867471058 7.772036489103256 0.5025681978535248 C 7.76410528470757 0.5108964768142858 7.755330554033744 0.5184840985552164 7.747277964149253 0.5267156806011664 C 7.715728023965639 0.5589671877624536 7.683122647243766 0.5901200533809923 7.651062476530935 0.6218510431072319 C 7.6352864777485445 0.6374665661586592 7.619921955199393 0.6535059097303226 7.60427762881164 0.6692531051763861 C 7.575690317507347 0.6980296955479686 7.546533111620018 0.726240506098847 7.517865562450244 0.7549348012237815 C 7.510434301677945 0.7623742915207463 7.503149114968445 0.7699475115935135 7.495824838016787 0.7774919283299537 C 7.493728366608433 0.7796521785544595 7.488562282500116 0.7831209232006657 7.488280421280347 0.7861967080441286 C 7.486525475145582 0.7854025589139773 7.484873398069126 0.7833246039361192 7.483422944346958 0.7820366833260803 C 7.480289552830842 0.7792551039893838 7.477082095592743 0.7765599346616672 7.473862294067646 0.77388122438328 C 7.464161741869032 0.7658142328306259 7.455051658065116 0.7571238547846142 7.446241951911466 0.7481042957520112 C 7.44255101009931 0.7443290013120416 7.437520713147961 0.7404508378137624 7.434724732143101 0.7359719190149538 C 7.442022263139598 0.7320731817050126 7.447021699373454 0.7245843142600594 7.452479931607372 0.718659056501415 C 7.460956342012099 0.7094605053073533 7.469910064847384 0.7006754877276966 7.478855558158004 0.6919357325336963 C 7.515055179777221 0.6565693502867882 7.550553234418765 0.6204767124882131 7.58632697813658 0.5846803375775702 C 7.6289826618553205 0.5419937931413372 7.671588968426072 0.49926815846294653 7.71420761928382 0.4565528106903866 C 7.722906226854496 0.44783362930804843 7.731279768200914 0.4387832095579524 7.740056556255905 0.43014838080342815 C 7.7627453557567145 0.40782168038786987 7.785565827652159 0.3856431114162779 7.807933675691042 0.3629872300141284 C 7.830159564429456 0.3404753652936125 7.85218588719475 0.31777010674347433 7.8743953168838345 0.29523972559246275 C 7.88002225437338 0.28953049285626914 7.885494888275462 0.2836237515281205 7.891280244114805 0.27807705190405635 C 7.896911296366683 0.2726825984862907 7.903034062717282 0.26743010436899234 7.908068474430964 0.26147192851168904 C 7.902028003327012 0.2621446921530351 7.895709785765625 0.261712642108134 7.8896281670383495 0.2617105847269677 C 7.879112891897922 0.26170646996463537 7.868597616757494 0.2617146994893002 7.8580823416170675 0.2617085273458016 C 7.853802988791379 0.26170646996463537 7.849521578584526 0.2617105847269677 7.845242225758838 0.261712642108134 C 7.843047000054508 0.261712642108134 7.840753020054199 0.26127236253856806 7.838915778672786 0.2626569800634179 C 7.83918941036789 0.2623483728884885 7.839930067587721 0.2620932576238803 7.839734616376932 0.26172910115746345 C 7.839528878260312 0.26134437087938495 7.838860229381298 0.2617414454444606 7.838424064574065 0.2617373306821284 C 7.836634142959475 0.2617208716327987 7.834844221344884 0.2617620192561227 7.833054299730294 0.2617352733009621 C 7.827225738886461 0.26165092067314816 7.821391005899129 0.26172910115746345 7.815562445055296 0.261712642108134 C 7.808353381448946 0.2616941256776382 7.801099055456938 0.2618978064130916 7.793896163994087 0.26159742876282693 C 7.785430040495191 0.26124561658340745 7.776651195059032 0.2602930491034587 7.7681953584659675 0.2611345180004329 C 7.764522933084308 0.263235104171119 7.761196147738569 0.267971195615702 7.758266436957905 0.2710469804591648 C 7.751497652921121 0.27815317500720554 7.7447638443641615 0.285288172891573 7.737937453654724 0.29234293291045893 C 7.716758771929903 0.3142314111376174 7.694874408465077 0.33541420762477064 7.673553767439788 0.35716484131379395 C 7.645900507184949 0.38537565186467243 7.617687639252905 0.4130206825948471 7.589929452558589 0.44112450932508335 C 7.54805763106417 0.4835147908733843 7.506216670287243 0.5259462200450091 7.464116479483376 0.5681143044273607 C 7.440464825596788 0.5918029911749405 7.416868721001687 0.6155533993575064 7.392949607563493 0.6389725691723147 C 7.387446112943919 0.6443608504465816 7.3820763481001475 0.6498684598284883 7.376712755399875 0.6553925282597242 C 7.375422777408669 0.6567215964930868 7.371293613408114 0.6600730704128199 7.372445746861184 0.6616037620004698 C 7.3715158105740635 0.6614885486551627 7.368219885945818 0.6662616729607374 7.367137703452398 0.6673027078308325 C 7.36110134711078 0.6731189243876683 7.35515757292164 0.6790380100028139 7.3492631758804885 0.6849982432412836 C 7.335953977116367 0.6984555734493711 7.322511048576443 0.7118470674601405 7.309788203444687 0.7258640053454333 C 7.300947636573543 0.7356036477862049 7.291191535083442 0.7478265492945748 7.279131166687201 0.7536077903715852 C 7.27485387124268 0.7556589993942826 7.270333804820548 0.7567041490267103 7.265593598613632 0.7567823295110256 C 7.259569586559011 0.7568810838070033 7.253494139975234 0.7559984672867051 7.248005047023823 0.7533794210621376 C 7.231130406698685 0.7453227164153144 7.2238637364196805 0.7239629851478684 7.230315683756871 0.706833229558121 C 7.2353665545198815 0.6934273338791883 7.248079112745806 0.6837000357254139 7.257964829249378 0.67391307351782 C 7.273814893753752 0.6582193699820775 7.289103293199753 0.6419742882937944 7.304982161040454 0.6263052733320462 C 7.310858041651109 0.6205075732057059 7.3166886598761085 0.6146563811690449 7.3224287533297945 0.6087249512669022 C 7.325093061940018 0.6059742326476982 7.328720224936022 0.6028861035172379 7.330709712523733 0.5996251543688176 C 7.329983456972066 0.5963518609333998 7.32796928081036 0.5930230182064948 7.326644327339331 0.589939003838367 C 7.3241610682717315 0.584161877523689 7.321920580181745 0.5782942264376982 7.319649231374264 0.5724306901140397 C 7.312917480198471 0.5550478766408504 7.307352264143911 0.5372288983604274 7.30217177836743 0.5193337969768554 C 7.28652539459851 0.4652637625480602 7.279262839081838 0.40953342151814504 7.280137226077471 0.3532805056720159 C 7.281196777378062 0.28517090216509994 7.293273604823632 0.2162404035728716 7.319050533454901 0.15295947366301732 C 7.352433600257596 0.0710119244322675 7.404841270704105 -0.003584601891664402 7.470572541582898 -0.0628454090027718 C 7.49673214311108 -0.0864312266920419 7.525391462756189 -0.1072539814751109 7.555303727531512 -0.1257848136390376 C 7.60316870036306 -0.15543579100625327 7.654381032352009 -0.1784887469734786 7.708973641597018 -0.19262707034757698 C 7.74174155143102 -0.201111710276969 7.774931224404092 -0.2078208302599339 7.808600267188889 -0.21147062444876547 C 7.842933844090367 -0.21519036959724772 7.8780862586959906 -0.21445382713974956 7.9123951470234735 -0.21102211535453477 C 7.9255294683884685 -0.20970744878933556 7.938532117358827 -0.20773442025095368 7.951608832051168 -0.20591569530003648 C 7.962477976752181 -0.20440352014288246 7.9741906477313345 -0.20288928760456226 7.983669002763999 -0.19693316912842507 C 7.998484204541776 -0.1876214619702223 8.008217674839049 -0.17005554157324151 8.001319275788793 -0.15283114644984924 C 8.000070445420914 -0.1497142139830624 7.998547983357928 -0.14676804415306982 7.996537921958554 -0.14407081744418698 C 7.994169876236263 -0.14088804878008188 7.99121341950044 -0.13789455918326676 7.987954527733185 -0.1356149808511217 C 7.982743181239211 -0.13196724404345633 7.976404389866161 -0.13008885503871945 7.970186983981917 -0.12908279564844966 C 7.95986098790878 -0.12741220214149854 7.949158491082229 -0.13162160400753542 7.939118470991192 -0.13352056682393426 C 7.922712913571946 -0.1366251550037239 7.906138650897072 -0.13810235468105259 7.88950883893071 -0.1392976931386124 C 7.876129689206938 -0.14025849014322592 7.862746424720833 -0.1398717024839811 7.849375504521726 -0.13962687412520378 C 7.830490802797214 -0.13928534885161525 7.811577297736375 -0.1384068470936496 7.792824268406498 -0.1360655473265186 C 7.77803169782155 -0.13421801903927466 7.763214438662607 -0.13106199633033014 7.748652294768272 -0.12791420314605034 C 7.721402281222007 -0.12202186348606524 7.693909496698131 -0.11370387143113508 7.668204576407679 -0.10287793173461213 C 7.659573862415487 -0.09924253921394394 7.651056304387437 -0.09537054785916319 7.64250377087956 -0.09155822055820217 C 7.6396440110585475 -0.09028264423516069 7.63675956266354 -0.089005010530953 7.633957409515181 -0.08760599133793978 C 7.632832022017273 -0.08704432627956829 7.630128623164891 -0.08508364202818355 7.630219147936204 -0.08531406871879754 Z M 7.796342390200694 0.12014630144335853 C 7.79641439854151 0.12182306709380819 7.799506642434303 0.12398125993714781 7.800673177555536 0.12512722124671882 C 7.804936071331894 0.12931193453876139 7.80941087536837 0.13329090971418428 7.813762236534875 0.13738098347258176 C 7.8305957292366895 0.1531960724971299 7.848620445633732 0.1684083488399825 7.864005541994546 0.18567183420553257 C 7.86647439939398 0.18682396765860226 7.870506866479724 0.1858076213625015 7.873167060327616 0.18571298182885648 C 7.880238279395831 0.18545786656424823 7.887350646087371 0.18563891610687344 7.894425979917918 0.1856327439633748 C 7.912942410413682 0.18561834229521146 7.931460898290611 0.18559982586471574 7.949977328786375 0.1856018832458819 C 7.9556927336660666 0.1856018832458819 7.961408138545759 0.1856039406270481 7.967123543425451 0.18558542419655233 C 7.970293967802559 0.1855751372907214 7.9737256795877745 0.18523978416063142 7.976854956341558 0.18575618683334655 C 7.978862960359765 0.1866038278738193 7.980667283642519 0.18902125074409953 7.982218549041831 0.19052725375775498 C 7.98611317158944 0.19430460557889068 7.989843203643753 0.19825066265565444 7.993713137617368 0.20205681781311685 C 8.004018559878842 0.2121935348189642 8.014391875718802 0.22226647300865948 8.024516248437653 0.23258629693829824 C 8.02770313186409 0.23583695918088782 8.030879728384697 0.23908762142347734 8.033984316564487 0.24241646415038237 C 8.035257835506362 0.24378050786357025 8.036981920923633 0.24506431371127652 8.037889226017926 0.24670198911956853 C 8.038940547793853 0.2559663765109487 8.038080562466382 0.26578831419836807 8.038084677228715 0.27511442302473416 C 8.03809290675338 0.2931720575204358 8.038082619847549 0.31123174939730364 8.038072332941718 0.3292914412741715 C 8.038068218179385 0.3363688324858855 8.037313159291392 0.34388856064833156 8.038039414843059 0.3509186320932231 C 8.040919748475734 0.3564653317172873 8.047637097983362 0.36076525835463674 8.051947311526543 0.36522154596061723 C 8.062153979492042 0.37577591134320226 8.072358590076373 0.38634262101278444 8.082505593988051 0.3969525356868569 C 8.10622719883429 0.42175426564534885 8.12968340151009 0.4467864222944546 8.153304194679185 0.4716807344054253 C 8.160945308330437 0.47973332428991616 8.167928060008506 0.488709678318029 8.175859264404192 0.49643308721592855 C 8.175213246718005 0.4798793983527159 8.17593538750734 0.4631364304222137 8.17593538750734 0.4465621677473392 C 8.175933330126174 0.43412735597885105 8.175001336457887 0.4212872401206223 8.175995051561161 0.4088956333566242 C 8.176435331130726 0.39888853136424735 8.175933330126174 0.38869832244807884 8.17592510060151 0.3786685892628738 C 8.175910698933347 0.3574076122914051 8.175894239884016 0.33614869270110254 8.175896297265183 0.3148897731108001 C 8.17589835464635 0.30048810494742867 8.175894239884016 0.28608643678405715 8.175906584171013 0.27168476862068563 C 8.175910698933347 0.26400867948960854 8.176511454233875 0.25609804890558524 8.175727592009554 0.2484589926354998 C 8.176453847561222 0.245405838984865 8.175966248224833 0.24156470834757726 8.175964190843667 0.2384189725444637 C 8.175958018700168 0.23177363137765084 8.175836633211363 0.22512829021083802 8.175809887256202 0.21848500642519142 C 8.175754337964715 0.20546384102433735 8.178204678933655 0.1923850689508299 8.18372874736489 0.18051603700304558 C 8.189857685858989 0.16734468277705927 8.200156935976965 0.15772436844392707 8.210534366579257 0.1479250619493359 C 8.21873714528888 0.14017902185860825 8.226789735173371 0.13228690770508067 8.234720939569057 0.12426312115691662 C 8.272422449439597 0.08612544647914272 8.311082698933586 0.04894033928131758 8.348843872857945 0.010858213895031 C 8.364031460626803 -0.004458988887297677 8.379574975337412 -0.019414092584375847 8.394744046675775 -0.03474775441603406 C 8.406226290964316 -0.046351384193379114 8.418329864365045 -0.057623775602966554 8.425896912294315 -0.07231553451077169 C 8.432075227936402 -0.08431212409086009 8.433373435452271 -0.09904503062198913 8.431534136689692 -0.11223284389730503 C 8.43068649564922 -0.11830006095641682 8.428577679953868 -0.1241101053697541 8.426047101119448 -0.12966091975615068 C 8.42328198083208 -0.1357240220529301 8.41972888355806 -0.14135095954247595 8.415328145243565 -0.14636685482566159 C 8.392122943070042 -0.1728247766229412 8.352041043190212 -0.17754440901819468 8.322692500854428 -0.1587399451591639 C 8.311354273247522 -0.1514753322613261 8.302149549909963 -0.1413694759729717 8.292883105137415 -0.13173270259050998 C 8.284608318086976 -0.12312256240998003 8.27603315338627 -0.11480662773621611 8.267690472757346 -0.10626232375300443 C 8.233048288680939 -0.07077867077962333 8.197665447384702 -0.0358978304879376 8.162212655128814 -0.0012268430752038484 C 8.150440320095841 0.010288319311994698 8.138355263125606 0.021408464515283665 8.126420394980503 0.032742577359857084 C 8.118505649634148 0.04026230552230314 8.111282184359634 0.04820996896731805 8.101888181954783 0.05399326742549476 C 8.091302955854704 0.06051105096000342 8.078687094543591 0.06454969018924606 8.066328405878252 0.0658396681804509 C 8.058010413823322 0.06670788303258557 8.049536060799761 0.06628817727468167 8.041187208027338 0.06629023465584777 C 8.02747064779231 0.06629434941818024 8.013756144938448 0.06628817727468167 8.00003958470342 0.06628611989351546 C 7.990896582800845 0.0662840625123492 7.98175358089827 0.06631286584867602 7.9726085216145295 0.06629229203701398 C 7.970328943282385 0.06628817727468167 7.964366652662749 0.0653109212207385 7.963409970420468 0.06742385167842174 C 7.962694001774632 0.06719342498780784 7.962459460321686 0.0665371203957913 7.961689999765528 0.06638898895182516 C 7.958406419424279 0.06575737293380307 7.954678444751132 0.06620176726570137 7.951349602024227 0.06624291488902528 C 7.945862566453982 0.06630875108634354 7.940375530883738 0.06628611989351546 7.934888495313493 0.0662840625123492 C 7.916143695508282 0.06627789036885062 7.897398895703072 0.06627789036885062 7.87865409589786 0.0662840625123492 C 7.872093107358862 0.06628611989351546 7.865532118819862 0.0662346853643605 7.858971130280864 0.0662840625123492 C 7.857273790818752 0.0662964067993464 7.85308907752671 0.06559689720283979 7.852967692037904 0.06745676977708087 C 7.851124278512993 0.06559689720283979 7.847423049795006 0.06620999679036615 7.844991225256563 0.06620999679036615 C 7.838152490260128 0.06620999679036615 7.831313755263692 0.06629434941818024 7.824475020267257 0.06629434941818024 C 7.796655112137955 0.06629229203701398 7.768781712098333 0.0658396681804509 7.7409720908748625 0.0662964067993464 C 7.753684649100787 0.07851725092655015 7.76632314160473 0.09090062816588346 7.77889168314902 0.10326754635588714 C 7.782383058988055 0.10670337290343429 7.785929984118576 0.11008159277832813 7.789330835186298 0.11360794409718789 C 7.791515773984798 0.11587517814233583 7.793542294433501 0.11862589676153978 7.796342390200694 0.12014630144335853 Z" fill="#0e3756" transform="matrix(1,0,0,1,0,0)" fill-rule="evenodd"></path></g><g clip-path="url(#SvgjsClipPath1000295723fa-2976-4daf-a394-d0e11264bd32)"><path d=" M 7.260742293823743 0.8581844750493244 C 7.261678402254361 0.8448197269937152 7.271961193323008 0.8356787824723069 7.280807932337651 0.8268423303634955 C 7.2966970870841825 0.8109716920474599 7.3128084389966626 0.7952327261260612 7.32825114203013 0.7789259230027923 C 7.33650947003124 0.7702087990016202 7.344422157996429 0.7597963929195026 7.355696606787183 0.7549018831251226 C 7.3684256240624375 0.7493757573127202 7.384432049535442 0.7535892739410894 7.393293190218247 0.7641642131353368 C 7.399358349896193 0.77140413745918 7.402074093035572 0.7802447043303238 7.401714051331488 0.789603731255349 C 7.40120382080227 0.802904700494806 7.38992731463035 0.8119839235812285 7.381284256351162 0.8207730559232174 C 7.365551462573261 0.8367691944903908 7.350215743360437 0.8531356616674792 7.33471954841665 0.869356054781768 C 7.3260703179939615 0.8784105892941965 7.3176309404502256 0.8897035545154457 7.305749564215445 0.8946124659779893 C 7.302356942672388 0.8960114851710026 7.298674230384897 0.8962645430544447 7.295045010007727 0.8961966494759603 C 7.275117216031953 0.8958242634848785 7.259361791061225 0.8778921292403148 7.260742293823743 0.8581844750493244 Z" fill="#fd9104" transform="matrix(1,0,0,1,0,0)" fill-rule="evenodd"></path></g><g clip-path="url(#SvgjsClipPath1000295723fa-2976-4daf-a394-d0e11264bd32)"><path d=" M 7.377609773588336 0.211823206209049 C 7.37945730187558 0.21218942005663188 7.379313285193946 0.21438876052329525 7.379134293032487 0.21611696070289982 C 7.37862406250327 0.22108553621926302 7.378350430808166 0.22596152958314736 7.378025364583907 0.23094656414884007 C 7.376698353731711 0.2513928181784952 7.376784763740691 0.2715284076520546 7.379564285696222 0.291851218811738 C 7.386267233535688 0.340827177473032 7.400831434811189 0.38923529893245595 7.422234371083126 0.4337940602299272 C 7.427453947101765 0.4446611475497742 7.432476014528449 0.45552000534495635 7.43872222374902 0.4658562883239246 C 7.441026490655159 0.4696727303872181 7.443727832126374 0.47555066837903975 7.447361167265877 0.4782170343704298 C 7.447013469848789 0.47960370927644586 7.444209259319264 0.4812866470703941 7.443147650637507 0.48231945241582436 C 7.439569864789492 0.48581288563602504 7.436134038241945 0.48946267982485675 7.432624145972415 0.4930281213858742 C 7.421650074831926 0.5041750125443238 7.41051758534164 0.5151737722588072 7.3996690144522885 0.5264420489060622 C 7.396558254129 0.529674194718156 7.393451608568045 0.5329104552925823 7.390367594199916 0.5361652322975041 C 7.389252493607838 0.5373420543245682 7.387791752979839 0.5393994354907641 7.3862569466298575 0.539994018647795 C 7.376367115363953 0.5073372073967668 7.3647346822502815 0.47519885619962027 7.359504819325812 0.4413117310112072 C 7.350044980723642 0.38002851821372924 7.353285356060401 0.3173997781335591 7.36555763471676 0.2567934437397596 C 7.3686519359907185 0.24150915905609 7.373622568888248 0.2268564903904426 7.377609773588336 0.211823206209049 Z" fill="#049ac9" transform="matrix(1,0,0,1,0,0)" fill-rule="evenodd"></path></g><g clip-path="url(#SvgjsClipPath1000295723fa-2976-4daf-a394-d0e11264bd32)"><path d=" M 7.838915778672786 0.2626569800634179 C 7.838485786009051 0.2638399742339806 7.837088824197204 0.264864550054746 7.83620415029574 0.2657430518127118 C 7.834325761291003 0.26760909653045156 7.8324658887167615 0.2694916002975208 7.830606016142521 0.2713761614457562 C 7.823415468966666 0.27865517601175743 7.8161035363020055 0.2858189772324516 7.808851267691165 0.29303627036346686 C 7.7840186770151805 0.31774953293181246 7.7595440706621135 0.3428536979217351 7.734987169062399 0.36784059218518456 C 7.656286167311906 0.4479262114605272 7.576996754547881 0.5274254771035038 7.49728352126362 0.6065009222262443 C 7.47554728924276 0.6280602194668112 7.453393408845162 0.6492224421423025 7.432101571156201 0.671226133714768 C 7.425522066186707 0.6780257784690455 7.419018684320362 0.6849735546672893 7.412099711458445 0.6914296167668121 C 7.4095259276195335 0.6938305805877627 7.406464544444233 0.6979021379156645 7.403137759098495 0.699113935422554 C 7.402117298040062 0.6986469098978274 7.401454821304546 0.6973322433326281 7.400780000282034 0.6964455120499977 C 7.399043570577765 0.6941597615743542 7.39729891134883 0.6918842980045414 7.395527506164736 0.6896294082463907 C 7.390369651581083 0.6830684197073917 7.385197395329266 0.6765403492670521 7.379920212637974 0.6700781150240307 C 7.377811396942623 0.6674961016604548 7.375309621444528 0.6632990440814153 7.372445746861184 0.6616037620004698 C 7.371293613408114 0.6600730704128199 7.375422777408669 0.6567215964930868 7.376712755399875 0.6553925282597242 C 7.3820763481001475 0.6498684598284883 7.387446112943919 0.6443608504465816 7.392949607563493 0.6389725691723147 C 7.416868721001687 0.6155533993575064 7.440464825596788 0.5918029911749405 7.464116479483376 0.5681143044273607 C 7.506216670287243 0.5259462200450091 7.54805763106417 0.4835147908733843 7.589929452558589 0.44112450932508335 C 7.617687639252905 0.4130206825948471 7.645900507184949 0.38537565186467243 7.673553767439788 0.35716484131379395 C 7.694874408465077 0.33541420762477064 7.716758771929903 0.3142314111376174 7.737937453654724 0.29234293291045893 C 7.7447638443641615 0.285288172891573 7.751497652921121 0.27815317500720554 7.758266436957905 0.2710469804591648 C 7.761196147738569 0.267971195615702 7.764522933084308 0.263235104171119 7.7681953584659675 0.2611345180004329 C 7.776651195059032 0.2602930491034587 7.785430040495191 0.26124561658340745 7.793896163994087 0.26159742876282693 C 7.801099055456938 0.2618978064130916 7.808353381448946 0.2616941256776382 7.815562445055296 0.261712642108134 C 7.821391005899129 0.26172910115746345 7.827225738886461 0.26165092067314816 7.833054299730294 0.2617352733009621 C 7.834844221344884 0.2617620192561227 7.836634142959475 0.2617208716327987 7.838424064574065 0.2617373306821284 C 7.838860229381298 0.2617414454444606 7.839528878260312 0.26134437087938495 7.839734616376932 0.26172910115746345 C 7.839930067587721 0.2620932576238803 7.83918941036789 0.2623483728884885 7.838915778672786 0.2626569800634179 Z" fill="#ffbe2f" transform="matrix(1,0,0,1,0,0)" fill-rule="evenodd"></path></g><g clip-path="url(#SvgjsClipPath1000295723fa-2976-4daf-a394-d0e11264bd32)"><path d=" M 7.377609773588336 0.211823206209049 C 7.37946758878141 0.20752327957169947 7.380767853678447 0.20293943433341494 7.382358209319916 0.19853458125658946 C 7.386411250217322 0.18730128008915975 7.390756439240327 0.17598568367508216 7.39537937472077 0.16497457967360152 C 7.4028847012150525 0.1470979947205252 7.41248032697419 0.13015751819806792 7.422296092518112 0.11348655860838236 C 7.431899947801914 0.09717564072278101 7.441907049794291 0.08085443593134878 7.454251336791466 0.06643013657514912 C 7.465877597761639 0.052849363497089796 7.476652102929007 0.03853410534269863 7.489185668993473 0.025737194488959947 C 7.493279857514203 0.021556595959249802 7.4972670622142905 0.017271070990063697 7.501365365497353 0.0131007593661846 C 7.502733523972873 0.011707912316669955 7.504134600547053 0.00995913832540335 7.505751702143683 0.008868726307319497 C 7.506488244601181 0.008372897446266292 7.507251533013839 0.006720820369810976 7.507584828762763 0.00811572480049183 C 7.503889772188275 0.018593967079927665 7.498468572815349 0.0284138473861808 7.494335294052462 0.03873572869698583 C 7.4896526945182 0.05042988324564346 7.4857889326880835 0.06252522712170927 7.482223491127066 0.07459999718611315 C 7.478948140310482 0.08569339643424156 7.475395043036462 0.09660574613974476 7.472940587305191 0.10793368684081955 C 7.4650196698153355 0.14449335016412113 7.462096131178171 0.18200558096737146 7.463301756541562 0.21935939342082467 C 7.464573218102271 0.25871503774898646 7.4694903590894794 0.29779910776321045 7.481161882445309 0.3355541095440719 C 7.4866941804012095 0.353449210927644 7.492876610805629 0.3711488611004275 7.500698773999505 0.3881798623941975 C 7.502914573515499 0.3930044212289269 7.50529907828712 0.397814578395493 7.507889321175361 0.4024498581629324 C 7.509603119686801 0.40551124133823185 7.511814804440462 0.408430665213064 7.5131397579114925 0.4116833848368197 C 7.512940191938371 0.4131317811778216 7.5101256945030155 0.41498342422739803 7.509072315345923 0.41604709029032133 C 7.505259988044962 0.4198964504522738 7.501577275757471 0.42388159777119544 7.497804038698668 0.42777210555647177 C 7.486087252957182 0.4398612772890392 7.474294344112547 0.45190107187361767 7.462336844774616 0.4637515873909062 C 7.458861927984912 0.4671956434631182 7.45523887975124 0.4704833385666994 7.451786594154363 0.47395414059407176 C 7.450537763786483 0.4752091431054513 7.448986498387171 0.4775627871595795 7.447361167265877 0.4782170343704298 C 7.443727832126374 0.47555066837903975 7.441026490655159 0.4696727303872181 7.43872222374902 0.4658562883239246 C 7.432476014528449 0.45552000534495635 7.427453947101765 0.4446611475497742 7.422234371083126 0.4337940602299272 C 7.400831434811189 0.38923529893245595 7.386267233535688 0.340827177473032 7.379564285696222 0.291851218811738 C 7.376784763740691 0.2715284076520546 7.376698353731711 0.2513928181784952 7.378025364583907 0.23094656414884007 C 7.378350430808166 0.22596152958314736 7.37862406250327 0.22108553621926302 7.379134293032487 0.21611696070289982 C 7.379313285193946 0.21438876052329525 7.37945730187558 0.21218942005663188 7.377609773588336 0.211823206209049 Z" fill="#01daf1" transform="matrix(1,0,0,1,0,0)" fill-rule="evenodd"></path></g><g clip-path="url(#SvgjsClipPath1000295723fa-2976-4daf-a394-d0e11264bd32)"><path d=" M 7.403137759098495 0.699113935422554 C 7.406464544444233 0.6979021379156645 7.4095259276195335 0.6938305805877627 7.412099711458445 0.6914296167668121 C 7.419018684320362 0.6849735546672893 7.425522066186707 0.6780257784690455 7.432101571156201 0.671226133714768 C 7.453393408845162 0.6492224421423025 7.47554728924276 0.6280602194668112 7.49728352126362 0.6065009222262443 C 7.576996754547881 0.5274254771035038 7.656286167311906 0.4479262114605272 7.734987169062399 0.36784059218518456 C 7.7595440706621135 0.3428536979217351 7.7840186770151805 0.31774953293181246 7.808851267691165 0.29303627036346686 C 7.8161035363020055 0.2858189772324516 7.823415468966666 0.27865517601175743 7.830606016142521 0.2713761614457562 C 7.8324658887167615 0.2694916002975208 7.834325761291003 0.26760909653045156 7.83620415029574 0.2657430518127118 C 7.837088824197204 0.264864550054746 7.838485786009051 0.2638399742339806 7.838915778672786 0.2626569800634179 C 7.840753020054199 0.26127236253856806 7.843047000054508 0.261712642108134 7.845242225758838 0.261712642108134 C 7.849521578584526 0.2617105847269677 7.853802988791379 0.26170646996463537 7.8580823416170675 0.2617085273458016 C 7.868597616757494 0.2617146994893002 7.879112891897922 0.26170646996463537 7.8896281670383495 0.2617105847269677 C 7.895709785765625 0.261712642108134 7.902028003327012 0.2621446921530351 7.908068474430964 0.26147192851168904 C 7.903034062717282 0.26743010436899234 7.896911296366683 0.2726825984862907 7.891280244114805 0.27807705190405635 C 7.885494888275462 0.2836237515281205 7.88002225437338 0.28953049285626914 7.8743953168838345 0.29523972559246275 C 7.85218588719475 0.31777010674347433 7.830159564429456 0.3404753652936125 7.807933675691042 0.3629872300141284 C 7.785565827652159 0.3856431114162779 7.7627453557567145 0.40782168038786987 7.740056556255905 0.43014838080342815 C 7.731279768200914 0.4387832095579524 7.722906226854496 0.44783362930804843 7.71420761928382 0.4565528106903866 C 7.671588968426072 0.49926815846294653 7.6289826618553205 0.5419937931413372 7.58632697813658 0.5846803375775702 C 7.550553234418765 0.6204767124882131 7.515055179777221 0.6565693502867882 7.478855558158004 0.6919357325336963 C 7.469910064847384 0.7006754877276966 7.460956342012099 0.7094605053073533 7.452479931607372 0.718659056501415 C 7.447021699373454 0.7245843142600594 7.442022263139598 0.7320731817050126 7.434724732143101 0.7359719190149538 C 7.432109800680866 0.7345728998219405 7.429752041864405 0.7309704253999316 7.427752267370863 0.7287896013637638 C 7.42192370652703 0.7224384657037171 7.416593031925416 0.7156923128597608 7.411085422543509 0.7090675455046098 C 7.40876469658804 0.706277736643248 7.4041397037264325 0.7026299998355827 7.403137759098495 0.699113935422554 Z" fill="#fda204" transform="matrix(1,0,0,1,0,0)" fill-rule="evenodd"></path></g><g clip-path="url(#SvgjsClipPath1000295723fa-2976-4daf-a394-d0e11264bd32)"><path d=" M 7.40546054243513 0.8801285025679699 C 7.4065756430272085 0.860180134780534 7.427466291388762 0.8420957543296719 7.447383798458705 0.8447538907963972 C 7.460902850101778 0.8465582140791508 7.47133994475789 0.8553905514256301 7.4771870220322185 0.8674365181537071 C 7.479659994193986 0.8725285365400421 7.4802010854406955 0.8786101552673173 7.479869847072938 0.884193887752373 C 7.478489344310421 0.9075410492263645 7.452903752127608 0.9254999294260886 7.430579109093216 0.9186118172816646 C 7.420253113020078 0.9154249338552274 7.412153203368765 0.9065493915042577 7.408069301753867 0.8967686014401623 C 7.405900822004696 0.8915757713766839 7.405147820497868 0.8857266367211889 7.40546054243513 0.8801285025679699 Z" fill="#f24562" transform="matrix(1,0,0,1,0,0)" fill-rule="evenodd"></path></g><g clip-path="url(#SvgjsClipPath1000295723fa-2976-4daf-a394-d0e11264bd32)"><path d=" M 7.507584828762763 0.00811572480049183 C 7.508434527184402 0.004941185661051478 7.51294636408187 0.002276877050827797 7.515281491705502 0.00017423349897557894 C 7.52197826740147 -0.005860065461477076 7.5285227968911395 -0.012061012296391616 7.535271007116262 -0.018041819346523158 C 7.564267737272627 -0.04373645273114407 7.595739496971927 -0.06754035282403095 7.630219147936204 -0.08531406871879754 C 7.626906764258629 -0.07925919594668293 7.621899098500108 -0.07393469348856785 7.618199927163287 -0.06803823906625034 C 7.6072587741214575 -0.05059987630157367 7.596329965366625 -0.03245171703455943 7.587853554961898 -0.013659597462525847 C 7.573161796054093 0.018914918541854286 7.5615622810390795 0.053487151658610566 7.555095932033726 0.08868277126872426 C 7.551699195728336 0.10717245580932705 7.550370127494974 0.12607567396433522 7.549446363351352 0.1448060721013829 C 7.547934188194198 0.17544664980953883 7.549010198544118 0.20677645020837038 7.5540384381143015 0.23706727311827291 C 7.558564676679932 0.2643214014268704 7.5658930683939225 0.2907854953676486 7.574941430762852 0.3168463425998523 C 7.577033787408873 0.3228765267979726 7.57936068550784 0.32882647313061125 7.581483902871355 0.3348463704229005 C 7.581918010297422 0.33608079912261807 7.582930241831191 0.3402449386029987 7.5842531379210545 0.3401420695446888 C 7.58342812807341 0.34192787639694694 7.58078850803718 0.34338244488144737 7.579370972413671 0.34477734931212817 C 7.575680030601516 0.3484065696892979 7.5720343511750166 0.3520810524521238 7.568374270080354 0.35574319092795254 C 7.555507408266965 0.3686162248848403 7.5428874321935195 0.38173408720050567 7.530158414918265 0.3947429083143625 C 7.526204128316836 0.3987856623059374 7.522144915275932 0.4027337767638674 7.518233833678994 0.4068176783787663 C 7.516991175454611 0.40811794327580214 7.514902933570922 0.41136449075605935 7.5131397579114925 0.4116833848368197 C 7.511814804440462 0.408430665213064 7.509603119686801 0.40551124133823185 7.507889321175361 0.4024498581629324 C 7.50529907828712 0.397814578395493 7.502914573515499 0.3930044212289269 7.500698773999505 0.3881798623941975 C 7.492876610805629 0.3711488611004275 7.4866941804012095 0.353449210927644 7.481161882445309 0.3355541095440719 C 7.4694903590894794 0.29779910776321045 7.464573218102271 0.25871503774898646 7.463301756541562 0.21935939342082467 C 7.462096131178171 0.18200558096737146 7.4650196698153355 0.14449335016412113 7.472940587305191 0.10793368684081955 C 7.475395043036462 0.09660574613974476 7.478948140310482 0.08569339643424156 7.482223491127066 0.07459999718611315 C 7.4857889326880835 0.06252522712170927 7.4896526945182 0.05042988324564346 7.494335294052462 0.03873572869698583 C 7.498468572815349 0.0284138473861808 7.503889772188275 0.018593967079927665 7.507584828762763 0.00811572480049183 Z" fill="#74f2fb" transform="matrix(1,0,0,1,0,0)" fill-rule="evenodd"></path></g><g clip-path="url(#SvgjsClipPath1000295723fa-2976-4daf-a394-d0e11264bd32)"><path d=" M 7.96182372954133 0.3875749923313359 C 7.9606530796577655 0.3866841462863731 7.959793094330295 0.38793709141658644 7.958844641612679 0.3888176505557182 C 7.956632956859019 0.3908709169595818 7.954561174024659 0.3931052329060705 7.952534653575956 0.39533954885255934 C 7.943597389790001 0.40520469154446864 7.93400382141203 0.4146254399044799 7.924624220675343 0.4240749916008178 C 7.9077228343950425 0.4411080502757538 7.890574562374799 0.4578942232107464 7.873790446820974 0.47504455261215567 C 7.850749835140745 0.4985830505346031 7.828050748734105 0.5223766637216589 7.804199528874396 0.5451086682269579 C 7.7790459867364845 0.5690812735754729 7.754703052778054 0.5937677901886578 7.730374520487787 0.6185777496718143 C 7.722066815338689 0.6270521026953753 7.714193217615657 0.6360305141046543 7.705755897453087 0.644362907827748 C 7.673868546758216 0.6758552413387089 7.642674533516354 0.7080367975403457 7.6106123054223564 0.7393563110333461 C 7.591069241724662 0.7584467508744781 7.5716701947086005 0.7776770926349115 7.552481000571491 0.7971255167989615 C 7.547160612875708 0.8025199702167272 7.542041848534213 0.8081592519932703 7.536573329394464 0.8134035165859035 C 7.534851301358358 0.8150535362811926 7.530859981895938 0.8170985731603915 7.530094636102113 0.8192032740934101 C 7.519595820011015 0.8122225797965072 7.509539340870649 0.8042913754008219 7.4998531903401995 0.7962140969423368 C 7.496149904241046 0.7931259678118765 7.491230705872672 0.7900090353450897 7.488280421280347 0.7861967080441286 C 7.488562282500116 0.7831209232006657 7.493728366608433 0.7796521785544595 7.495824838016787 0.7774919283299537 C 7.503149114968445 0.7699475115935135 7.510434301677945 0.7623742915207463 7.517865562450244 0.7549348012237815 C 7.546533111620018 0.726240506098847 7.575690317507347 0.6980296955479686 7.60427762881164 0.6692531051763861 C 7.619921955199393 0.6535059097303226 7.6352864777485445 0.6374665661586592 7.651062476530935 0.6218510431072319 C 7.683122647243766 0.5901200533809923 7.715728023965639 0.5589671877624536 7.747277964149253 0.5267156806011664 C 7.755330554033744 0.5184840985552164 7.76410528470757 0.5108964768142858 7.772036489103256 0.5025681978535248 C 7.7952704946131055 0.4781758867471058 7.819317165683604 0.4547011676408103 7.8430902050589975 0.43083143135060525 C 7.869525495663449 0.40428915692551154 7.896191212958515 0.37797525180986574 7.922733487383608 0.35153996120541425 C 7.931868259761518 0.34244222168849586 7.941070925717913 0.33341649051239436 7.950312681916465 0.3244257348161182 C 7.954141468266755 0.3207018749053036 7.957484712661824 0.3158176520167543 7.961934828124305 0.31283033456343784 C 7.961689999765528 0.32973583560606995 7.961945115030137 0.34667013998502844 7.961949229792468 0.36357975578999285 C 7.961953344554801 0.3714986158986809 7.962593190097488 0.3796911077024731 7.96182372954133 0.3875749923313359 Z" fill="#fb8f4f" transform="matrix(1,0,0,1,0,0)" fill-rule="evenodd"></path></g><g clip-path="url(#SvgjsClipPath1000295723fa-2976-4daf-a394-d0e11264bd32)"><path d=" M 7.96182372954133 0.3875749923313359 C 7.962465632465184 0.4023963662526114 7.961961574079465 0.41732678137569507 7.961965688841798 0.4321604995839678 C 7.961965688841798 0.43764547777304613 7.961963631460632 0.4431325133432907 7.961953344554801 0.4486174915323689 C 7.9619471724113025 0.451452562779387 7.962325730545882 0.45457978215200473 7.961860762402322 0.45737370577569886 C 7.960496718689134 0.46000509628726344 7.956853096643801 0.46224146961491835 7.954766912141278 0.4643811460277622 C 7.948598883405023 0.47070965049498087 7.942321813466959 0.47693734328505594 7.936061202578225 0.48317532298096194 C 7.916164269319944 0.5030043626607583 7.896287909873326 0.5227799104302335 7.876629632830324 0.5428496637064748 C 7.8434029269962595 0.5767717643747132 7.809258629162072 0.6098503387648111 7.775721258771912 0.6435152667872752 C 7.75482443826686 0.6644902677766427 7.734585979734991 0.6861421471696887 7.7137837987635836 0.7071706400693771 C 7.701161765308972 0.7199325754432904 7.687949263459662 0.7322480591041391 7.675158524749421 0.7448659777964188 C 7.652333938091644 0.7673840146604334 7.629789155272469 0.7901941996500474 7.607256716740292 0.8130043846396617 C 7.599595029277378 0.8207607116362201 7.5920650142091 0.8286116781664239 7.58462346653097 0.8365778580419345 C 7.58115677926593 0.8402873162845856 7.57666757356129 0.8441037583478792 7.5741061340093765 0.8485086114247045 C 7.57355269847567 0.8472433220074944 7.572094015228837 0.846348361200199 7.571036521309412 0.8455048349220589 C 7.568135613865076 0.8431943958724206 7.564905525434148 0.8413633266345062 7.561720699388877 0.8394767081051047 C 7.554511635782526 0.8352035274229155 7.547335490274834 0.8308418793505801 7.540293074542946 0.8262971243544535 C 7.537089732067179 0.8242294562824266 7.532590239456709 0.8220959520130815 7.530094636102113 0.8192032740934101 C 7.530859981895938 0.8170985731603915 7.534851301358358 0.8150535362811926 7.536573329394464 0.8134035165859035 C 7.542041848534213 0.8081592519932703 7.547160612875708 0.8025199702167272 7.552481000571491 0.7971255167989615 C 7.5716701947086005 0.7776770926349115 7.591069241724662 0.7584467508744781 7.6106123054223564 0.7393563110333461 C 7.642674533516354 0.7080367975403457 7.673868546758216 0.6758552413387089 7.705755897453087 0.644362907827748 C 7.714193217615657 0.6360305141046543 7.722066815338689 0.6270521026953753 7.730374520487787 0.6185777496718143 C 7.754703052778054 0.5937677901886578 7.7790459867364845 0.5690812735754729 7.804199528874396 0.5451086682269579 C 7.828050748734105 0.5223766637216589 7.850749835140745 0.4985830505346031 7.873790446820974 0.47504455261215567 C 7.890574562374799 0.4578942232107464 7.9077228343950425 0.4411080502757538 7.924624220675343 0.4240749916008178 C 7.93400382141203 0.4146254399044799 7.943597389790001 0.40520469154446864 7.952534653575956 0.39533954885255934 C 7.954561174024659 0.3931052329060705 7.956632956859019 0.3908709169595818 7.958844641612679 0.3888176505557182 C 7.959793094330295 0.38793709141658644 7.9606530796577655 0.3866841462863731 7.96182372954133 0.3875749923313359 Z" fill="#f7753c" transform="matrix(1,0,0,1,0,0)" fill-rule="evenodd"></path></g><g clip-path="url(#SvgjsClipPath1000295723fa-2976-4daf-a394-d0e11264bd32)"><path d=" M 7.7296688387477825 0.7976192882788486 C 7.731450530837709 0.7996375792028867 7.734355553044377 0.8009604752927506 7.736633073995356 0.8023594944857639 C 7.741934945260643 0.8056204436341843 7.7473890627322275 0.8085275232220193 7.752941934499791 0.8113317337515442 C 7.771530373336371 0.8207133918693976 7.790629042702168 0.829074588928818 7.809801777789947 0.8371703838177991 C 7.8166816604097065 0.8400754060244675 7.823680871137105 0.8425154600875759 7.830879647837625 0.8444946607694566 C 7.833091332591286 0.8451036455946503 7.8375640792465955 0.8459615735409542 7.838397318618905 0.8484366030838879 C 7.834622024178935 0.847704175388722 7.830527835658206 0.848175315675781 7.826684647639751 0.8477885280165363 C 7.816161142974659 0.8467351488594439 7.805555343062919 0.8457681797113317 7.795064756496486 0.8443959064734792 C 7.764010645173925 0.8403346360514081 7.732944189564367 0.8335781963016209 7.703519524125432 0.8229641668652161 C 7.703780811533539 0.8211701304882932 7.707303048090067 0.8187341911875172 7.708607427749435 0.8174668443891406 C 7.713571888503465 0.8126443429355774 7.718536349257496 0.807821841482014 7.723498752630361 0.8029952252661186 C 7.724877198011712 0.8016538127457586 7.727743129976223 0.7975987144671866 7.7296688387477825 0.7976192882788486 Z" fill="#0386b6" transform="matrix(1,0,0,1,0,0)" fill-rule="evenodd"></path></g><g clip-path="url(#SvgjsClipPath1000295723fa-2976-4daf-a394-d0e11264bd32)"><path d=" M 7.792279062397457 0.7350275810596698 C 7.795021551491996 0.7363875100105255 7.797566531994581 0.7386362276251777 7.800107397734832 0.7403664851859484 C 7.805306399941809 0.7439072381729717 7.810486885718291 0.7475055978326481 7.815772297934248 0.7509126210438686 C 7.8301163594249665 0.7601626067670855 7.84523605361534 0.768377729763706 7.8608083716622765 0.7753604814417747 C 7.90278100483384 0.7941814043501352 7.9465003546155035 0.8073589307196201 7.991947904576771 0.8145289040838128 C 8.005397005260194 0.8166500640661609 8.019084762158895 0.8166706378778228 8.032490657837828 0.8182054442278051 C 8.029867496850928 0.8213306062192565 8.023218040921783 0.8226596744526189 8.019461262912309 0.8239969722106464 C 8.006894778749185 0.8284717762471228 7.993885957635328 0.8317944468305289 7.980864792234474 0.8346398049833779 C 7.956355210401582 0.8399972255401522 7.931631660927406 0.8459595161597881 7.906543954986812 0.847807044447032 C 7.88930310081409 0.8490764486265749 7.871973779251222 0.849434432949493 7.85468972007401 0.8493727115145071 C 7.851346475678942 0.8493603672275101 7.8479620836605495 0.8494385477118251 7.844625011408979 0.8491916619718816 C 7.842590261435612 0.8490414731467495 7.840419724305275 0.8483337340255781 7.838397318618905 0.8484366030838879 C 7.8375640792465955 0.8459615735409542 7.833091332591286 0.8451036455946503 7.830879647837625 0.8444946607694566 C 7.823680871137105 0.8425154600875759 7.8166816604097065 0.8400754060244675 7.809801777789947 0.8371703838177991 C 7.790629042702168 0.829074588928818 7.771530373336371 0.8207133918693976 7.752941934499791 0.8113317337515442 C 7.7473890627322275 0.8085275232220193 7.741934945260643 0.8056204436341843 7.736633073995356 0.8023594944857639 C 7.734355553044377 0.8009604752927506 7.731450530837709 0.7996375792028867 7.7296688387477825 0.7976192882788486 C 7.729874576864402 0.7961955805118408 7.731890810407274 0.7950557913457685 7.732931845277369 0.7940373876685014 C 7.736102269654477 0.7909410290133765 7.739252120219923 0.7878261539277558 7.742373167449042 0.7846783607434762 C 7.754225740347497 0.7727229187867117 7.765755304402859 0.7604526975115191 7.777667541355133 0.7485569196085744 C 7.781245327203148 0.744983248522892 7.7847346456610165 0.7413231674282295 7.788316546271363 0.7377556684860458 C 7.789380212334287 0.7366961171854549 7.790814207007125 0.734566727678442 7.792279062397457 0.7350275810596698 Z" fill="#059ecc" transform="matrix(1,0,0,1,0,0)" fill-rule="evenodd"></path></g><g clip-path="url(#SvgjsClipPath1000295723fa-2976-4daf-a394-d0e11264bd32)"><path d=" M 7.852967692037904 0.06745676977708087 C 7.8568520276796825 0.07236979600195675 7.861913185348524 0.07669441121330062 7.866511432254972 0.08093261641566424 C 7.875777877027518 0.08947074825537732 7.885513404705957 0.09748836266004285 7.894753103523343 0.10606146997958121 C 7.898207446501386 0.10926686983651446 7.901721453533249 0.11252781898493508 7.904854845049366 0.1160479981602962 C 7.90563664989252 0.11692649991826193 7.907751637731369 0.11870201986468898 7.9074718338927665 0.11994673547023754 C 7.897444158088728 0.11941181636702664 7.887325957513376 0.11975745640294755 7.877283880041174 0.1197698006899447 C 7.8603680920927115 0.11979037450160668 7.843450246763082 0.11977391545227706 7.826534458814619 0.11978214497694184 C 7.819450895459406 0.11978625973927426 7.812363217341861 0.11981506307560102 7.8052796539866485 0.11976362854644612 C 7.802919837789022 0.11974511211595035 7.7982845580215825 0.11895302036696492 7.796342390200694 0.12014630144335853 C 7.793542294433501 0.11862589676153978 7.791515773984798 0.11587517814233583 7.789330835186298 0.11360794409718789 C 7.785929984118576 0.11008159277832813 7.782383058988055 0.10670337290343429 7.77889168314902 0.10326754635588714 C 7.76632314160473 0.09090062816588346 7.753684649100787 0.07851725092655015 7.7409720908748625 0.0662964067993464 C 7.768781712098333 0.0658396681804509 7.796655112137955 0.06629229203701398 7.824475020267257 0.06629434941818024 C 7.831313755263692 0.06629434941818024 7.838152490260128 0.06620999679036615 7.844991225256563 0.06620999679036615 C 7.847423049795006 0.06620999679036615 7.851124278512993 0.06559689720283979 7.852967692037904 0.06745676977708087 Z" fill="#63f0fb" transform="matrix(1,0,0,1,0,0)" fill-rule="evenodd"></path></g><g clip-path="url(#SvgjsClipPath1000295723fa-2976-4daf-a394-d0e11264bd32)"><path d=" M 7.857214126764933 0.6702241890868308 C 7.8587242445409204 0.6720099959390888 7.861186929796857 0.6731271539123331 7.863122925474247 0.6744109597600394 C 7.867128646604831 0.6770711536079306 7.871037670820603 0.6798630198504587 7.87510099862384 0.682440918451702 C 7.889667257280507 0.6916806172690879 7.904751975991056 0.6994575180773086 7.920223482360849 0.7070574841052364 C 7.979805240933883 0.7363257885755397 8.045894496135595 0.7504497102814744 8.11198169395614 0.7522355171337327 C 8.124122300217863 0.7525626407391577 8.136528308650023 0.7532518634298333 8.14865039848125 0.7527416329006169 C 8.14835825035565 0.7546693990533424 8.144095356579292 0.7566033373495666 8.142579066659806 0.7577122657981461 C 8.136085971699291 0.7624504146238955 8.129446802675977 0.7670383746245124 8.122770600791672 0.7715152360421547 C 8.102147411981724 0.7853387800978249 8.080872033342091 0.797771534485147 8.05809888121347 0.8077848086210224 C 8.052247689176808 0.8103565350787674 8.046425300476473 0.8130373027383209 8.04042391961468 0.8152469301108152 C 8.037858365300433 0.8161912680660992 8.035179655022047 0.8177281317972476 8.032490657837828 0.8182054442278051 C 8.019084762158895 0.8166706378778228 8.005397005260194 0.8166500640661609 7.991947904576771 0.8145289040838128 C 7.9465003546155035 0.8073589307196201 7.90278100483384 0.7941814043501352 7.8608083716622765 0.7753604814417747 C 7.84523605361534 0.768377729763706 7.8301163594249665 0.7601626067670855 7.815772297934248 0.7509126210438686 C 7.810486885718291 0.7475055978326481 7.805306399941809 0.7439072381729717 7.800107397734832 0.7403664851859484 C 7.797566531994581 0.7386362276251777 7.795021551491996 0.7363875100105255 7.792279062397457 0.7350275810596698 C 7.791606298756111 0.7339145378487579 7.794412566666802 0.7320258619381901 7.795352789859754 0.7311350158932273 C 7.798903829752608 0.727773255067663 7.802370517017648 0.7243271416142849 7.805839261663854 0.7208810281609068 C 7.81891391897503 0.707894838239878 7.831807526743579 0.6946864511529003 7.844680560700467 0.6815006952587506 C 7.847665820772617 0.6784434268457833 7.850694285849258 0.6754314208184726 7.853689832827239 0.6723864966925026 C 7.854823449849813 0.6712343632394329 7.855745156612269 0.6692345887458904 7.857214126764933 0.6702241890868308 Z" fill="#00dbf4" transform="matrix(1,0,0,1,0,0)" fill-rule="evenodd"></path></g><g clip-path="url(#SvgjsClipPath1000295723fa-2976-4daf-a394-d0e11264bd32)"><path d=" M 7.796342390200694 0.12014630144335853 C 7.7982845580215825 0.11895302036696492 7.802919837789022 0.11974511211595035 7.8052796539866485 0.11976362854644612 C 7.812363217341861 0.11981506307560102 7.819450895459406 0.11978625973927426 7.826534458814619 0.11978214497694184 C 7.843450246763082 0.11977391545227706 7.8603680920927115 0.11979037450160668 7.877283880041174 0.1197698006899447 C 7.887325957513376 0.11975745640294755 7.897444158088728 0.11941181636702664 7.9074718338927665 0.11994673547023754 C 7.913773592404825 0.11929660302171957 7.920328408800325 0.11978214497694184 7.926661028029876 0.11978214497694184 C 7.938776945717604 0.11978420235810805 7.950890806024166 0.11979448926393904 7.963006723711893 0.11978625973927426 C 7.974665902780726 0.11978008759577569 7.986325081849558 0.11978831712044047 7.99798426091839 0.11977803021460953 C 8.004320994910273 0.1197718580711109 8.010892270355104 0.11927808659122385 8.017198143629495 0.11996730928189947 C 8.022378629405976 0.11939947208002943 8.027740164725081 0.11969984973029402 8.03294945383789 0.11962578400831098 C 8.039967180995784 0.11952497233116732 8.047200933176129 0.11914435681542118 8.054173397948368 0.12013395715636138 C 8.071739318345347 0.12262956051095703 8.090741290796334 0.1308878885120675 8.100820401129527 0.14615365676524122 C 8.104027858367626 0.15100907631746363 8.106786806511495 0.1566298416635109 8.108539695265094 0.16218682819340607 C 8.111790357507685 0.1724943078360477 8.112088677776782 0.18348072326353393 8.11211748111311 0.19418939223358372 C 8.112129825400107 0.1989460574898287 8.111348020556951 0.20445983901523374 8.112135997543605 0.20911774997550137 C 8.111113479104006 0.22131390552871077 8.112162743498766 0.23405732447212835 8.112156571355268 0.24630902931682513 C 8.112148341830602 0.26601051136431725 8.11153318486191 0.28571405079297557 8.111475578189257 0.3053929016476397 C 8.111448832234096 0.31404624683265975 8.111345963175786 0.3226995920176798 8.11131098769596 0.3313529372026999 C 8.111298643408963 0.3343608284676783 8.110350190691348 0.3395166256701652 8.111681316305877 0.3422694016705354 C 8.11355559054828 0.34614139302531616 8.11867229750861 0.3494702357522212 8.121622582100935 0.3525645370261799 C 8.129880910102045 0.3612322838793632 8.13849927980724 0.36954204640962857 8.146819329243336 0.3781501292089923 C 8.153987245226363 0.38556287355079627 8.16146376838432 0.39278222406297786 8.168339536241746 0.40046654271871956 C 8.170102711901174 0.40243545649476903 8.17185765803594 0.40441671455781575 8.173579686072046 0.40642060381369055 C 8.17417221184791 0.40710776912319996 8.17508157432337 0.4086940100023371 8.175995051561161 0.4088956333566242 C 8.175001336457887 0.4212872401206223 8.175933330126174 0.43412735597885105 8.17593538750734 0.4465621677473392 C 8.17593538750734 0.4631364304222137 8.175213246718005 0.4798793983527159 8.175859264404192 0.49643308721592855 C 8.167928060008506 0.488709678318029 8.160945308330437 0.47973332428991616 8.153304194679185 0.4716807344054253 C 8.12968340151009 0.4467864222944546 8.10622719883429 0.42175426564534885 8.082505593988051 0.3969525356868569 C 8.072358590076373 0.38634262101278444 8.062153979492042 0.37577591134320226 8.051947311526543 0.36522154596061723 C 8.047637097983362 0.36076525835463674 8.040919748475734 0.3564653317172873 8.038039414843059 0.3509186320932231 C 8.037313159291392 0.34388856064833156 8.038068218179385 0.3363688324858855 8.038072332941718 0.3292914412741715 C 8.038082619847549 0.31123174939730364 8.03809290675338 0.2931720575204358 8.038084677228715 0.27511442302473416 C 8.038080562466382 0.26578831419836807 8.038940547793853 0.2559663765109487 8.037889226017926 0.24670198911956853 C 8.036981920923633 0.24506431371127652 8.035257835506362 0.24378050786357025 8.033984316564487 0.24241646415038237 C 8.030879728384697 0.23908762142347734 8.02770313186409 0.23583695918088782 8.024516248437653 0.23258629693829824 C 8.014391875718802 0.22226647300865948 8.004018559878842 0.2121935348189642 7.993713137617368 0.20205681781311685 C 7.989843203643753 0.19825066265565444 7.98611317158944 0.19430460557889068 7.982218549041831 0.19052725375775498 C 7.980667283642519 0.18902125074409953 7.978862960359765 0.1866038278738193 7.976854956341558 0.18575618683334655 C 7.9737256795877745 0.18523978416063142 7.970293967802559 0.1855751372907214 7.967123543425451 0.18558542419655233 C 7.961408138545759 0.1856039406270481 7.9556927336660666 0.1856018832458819 7.949977328786375 0.1856018832458819 C 7.931460898290611 0.18559982586471574 7.912942410413682 0.18561834229521146 7.894425979917918 0.1856327439633748 C 7.887350646087371 0.18563891610687344 7.880238279395831 0.18545786656424823 7.873167060327616 0.18571298182885648 C 7.870506866479724 0.1858076213625015 7.86647439939398 0.18682396765860226 7.864005541994546 0.18567183420553257 C 7.848620445633732 0.1684083488399825 7.8305957292366895 0.1531960724971299 7.813762236534875 0.13738098347258176 C 7.80941087536837 0.13329090971418428 7.804936071331894 0.12931193453876139 7.800673177555536 0.12512722124671882 C 7.799506642434303 0.12398125993714781 7.79641439854151 0.12182306709380819 7.796342390200694 0.12014630144335853 Z" fill="#00dff5" transform="matrix(1,0,0,1,0,0)" fill-rule="evenodd"></path></g><g clip-path="url(#SvgjsClipPath1000295723fa-2976-4daf-a394-d0e11264bd32)"><path d=" M 7.963409970420468 0.06742385167842174 C 7.964251439317442 0.06913353542753053 7.966035188788534 0.070429685562234 7.9673971751205555 0.07172789307810362 C 7.970003877058126 0.07421115214570217 7.972590005184034 0.07672115716846112 7.975174075928776 0.07922704742888781 C 7.984712095015261 0.08848526267676943 7.994480540792359 0.09754596933269633 8.00433333919727 0.10646677406932187 C 8.007765050982485 0.10957341963027767 8.011346951592833 0.11265126185490681 8.014509146445276 0.11603565387329906 C 8.015293008669596 0.11687300800794082 8.017508808185589 0.11877197082433966 8.017198143629495 0.11996730928189947 C 8.010892270355104 0.11927808659122385 8.004320994910273 0.1197718580711109 7.99798426091839 0.11977803021460953 C 7.986325081849558 0.11978831712044047 7.974665902780726 0.11978008759577569 7.963006723711893 0.11978625973927426 C 7.950890806024166 0.11979448926393904 7.938776945717604 0.11978420235810805 7.926661028029876 0.11978214497694184 C 7.920328408800325 0.11978214497694184 7.913773592404825 0.11929660302171957 7.9074718338927665 0.11994673547023754 C 7.907751637731369 0.11870201986468898 7.90563664989252 0.11692649991826193 7.904854845049366 0.1160479981602962 C 7.901721453533249 0.11252781898493508 7.898207446501386 0.10926686983651446 7.894753103523343 0.10606146997958121 C 7.885513404705957 0.09748836266004285 7.875777877027518 0.08947074825537732 7.866511432254972 0.08093261641566424 C 7.861913185348524 0.07669441121330062 7.8568520276796825 0.07236979600195675 7.852967692037904 0.06745676977708087 C 7.85308907752671 0.06559689720283979 7.857273790818752 0.0662964067993464 7.858971130280864 0.0662840625123492 C 7.865532118819862 0.0662346853643605 7.872093107358862 0.06628611989351546 7.87865409589786 0.0662840625123492 C 7.897398895703072 0.06627789036885062 7.916143695508282 0.06627789036885062 7.934888495313493 0.0662840625123492 C 7.940375530883738 0.06628611989351546 7.945862566453982 0.06630875108634354 7.951349602024227 0.06624291488902528 C 7.954678444751132 0.06620176726570137 7.958406419424279 0.06575737293380307 7.961689999765528 0.06638898895182516 C 7.962459460321686 0.0665371203957913 7.962694001774632 0.06719342498780784 7.963409970420468 0.06742385167842174 Z" fill="#9dfcff" transform="matrix(1,0,0,1,0,0)" fill-rule="evenodd"></path></g><g clip-path="url(#SvgjsClipPath1000295723fa-2976-4daf-a394-d0e11264bd32)"><path d=" M 7.916302113858079 0.6104634383523375 C 7.953199187692637 0.6340821741402669 7.995284976828341 0.649730615290353 8.03787070958743 0.6593365279553218 C 8.074514725538545 0.667603085481097 8.111271897453802 0.6719997090332577 8.148854079216704 0.6718824383067845 C 8.171575796816171 0.6718104299659677 8.193908669375228 0.6703867221989601 8.21623948455312 0.6659695248351374 C 8.22324281004285 0.6645849073102876 8.229925184070654 0.6627106330678831 8.236798894546915 0.660819899776149 C 8.239372678385825 0.6601121606549776 8.242197462727013 0.6597089139464032 8.244616942978459 0.6587769202781164 C 8.222481579011358 0.6851648911157455 8.199977943815506 0.7105488599442709 8.173688727273854 0.7329537408441444 C 8.167561846160924 0.738177431625116 8.16133826813318 0.7432653352491185 8.155011821047127 0.7482503698148113 C 8.153462613028983 0.7494724542275315 8.15198747073282 0.7507768338868999 8.150393000329018 0.7519433690081327 C 8.149880712418636 0.7523178123803804 8.149247039019446 0.7529946907840588 8.14865039848125 0.7527416329006169 C 8.136528308650023 0.7532518634298333 8.124122300217863 0.7525626407391577 8.11198169395614 0.7522355171337327 C 8.045894496135595 0.7504497102814744 7.979805240933883 0.7363257885755397 7.920223482360849 0.7070574841052364 C 7.904751975991056 0.6994575180773086 7.889667257280507 0.6916806172690879 7.87510099862384 0.682440918451702 C 7.871037670820603 0.6798630198504587 7.867128646604831 0.6770711536079306 7.863122925474247 0.6744109597600394 C 7.861186929796857 0.6731271539123331 7.8587242445409204 0.6720099959390888 7.857214126764933 0.6702241890868308 C 7.856636002657232 0.6686996696426795 7.858133776146222 0.6679384386111871 7.85920567173381 0.6668315675437735 C 7.861972849402344 0.6639759224850936 7.864793518981198 0.6611717119555687 7.867587442604893 0.6583386980897168 C 7.879265138104221 0.6464943547159268 7.891080678141684 0.6347878558802722 7.902793349120837 0.6229784879863074 C 7.906095445892582 0.6196475878782362 7.909689690789926 0.6164174994473086 7.912765475633389 0.6128849759849502 C 7.9138641171761375 0.6116238013300721 7.9147817091762604 0.6094923544418931 7.916302113858079 0.6104634383523375 Z" fill="#72f2fc" transform="matrix(1,0,0,1,0,0)" fill-rule="evenodd"></path></g><g clip-path="url(#SvgjsClipPath1000295723fa-2976-4daf-a394-d0e11264bd32)"><path d=" M 8.175727592009554 0.2484589926354998 C 8.174124892081089 0.2479220161511227 8.173005676726678 0.24620204549618285 8.171892633515766 0.24497584632113012 C 8.169460808977322 0.24228890651807822 8.167181230645177 0.23946823693922364 8.16477820944306 0.23675455118101119 C 8.158803574536428 0.23001251309938714 8.152542963647694 0.22347827051554886 8.146109532740999 0.2171723972411584 C 8.143202453153163 0.2143249817071432 8.140219250462179 0.21068135966181023 8.136713472954982 0.20857871610995804 C 8.131687290765965 0.20737103336540097 8.125488401312216 0.2086712982624368 8.120324374585065 0.20871038850459456 C 8.117754705508487 0.20873096231625649 8.114551363032719 0.20821250226237514 8.112135997543605 0.20911774997550137 C 8.111348020556951 0.20445983901523374 8.112129825400107 0.1989460574898287 8.11211748111311 0.19418939223358372 C 8.112088677776782 0.18348072326353393 8.111790357507685 0.1724943078360477 8.108539695265094 0.16218682819340607 C 8.106786806511495 0.1566298416635109 8.104027858367626 0.15100907631746363 8.100820401129527 0.14615365676524122 C 8.090741290796334 0.1308878885120675 8.071739318345347 0.12262956051095703 8.054173397948368 0.12013395715636138 C 8.047200933176129 0.11914435681542118 8.039967180995784 0.11952497233116732 8.03294945383789 0.11962578400831098 C 8.027740164725081 0.11969984973029402 8.022378629405976 0.11939947208002943 8.017198143629495 0.11996730928189947 C 8.017508808185589 0.11877197082433966 8.015293008669596 0.11687300800794082 8.014509146445276 0.11603565387329906 C 8.011346951592833 0.11265126185490681 8.007765050982485 0.10957341963027767 8.00433333919727 0.10646677406932187 C 7.994480540792359 0.09754596933269633 7.984712095015261 0.08848526267676943 7.975174075928776 0.07922704742888781 C 7.972590005184034 0.07672115716846112 7.970003877058126 0.07421115214570217 7.9673971751205555 0.07172789307810362 C 7.966035188788534 0.070429685562234 7.964251439317442 0.06913353542753053 7.963409970420468 0.06742385167842174 C 7.964366652662749 0.0653109212207385 7.970328943282385 0.06628817727468167 7.9726085216145295 0.06629229203701398 C 7.98175358089827 0.06631286584867602 7.990896582800845 0.0662840625123492 8.00003958470342 0.06628611989351546 C 8.013756144938448 0.06628817727468167 8.02747064779231 0.06629434941818024 8.041187208027338 0.06629023465584777 C 8.049536060799761 0.06628817727468167 8.058010413823322 0.06670788303258557 8.066328405878252 0.0658396681804509 C 8.078687094543591 0.06454969018924606 8.091302955854704 0.06051105096000342 8.101888181954783 0.05399326742549476 C 8.111282184359634 0.04820996896731805 8.118505649634148 0.04026230552230314 8.126420394980503 0.032742577359857084 C 8.138355263125606 0.021408464515283665 8.150440320095841 0.010288319311994698 8.162212655128814 -0.0012268430752038484 C 8.197665447384702 -0.0358978304879376 8.233048288680939 -0.07077867077962333 8.267690472757346 -0.10626232375300443 C 8.27603315338627 -0.11480662773621611 8.284608318086976 -0.12312256240998003 8.292883105137415 -0.13173270259050998 C 8.302149549909963 -0.1413694759729717 8.311354273247522 -0.1514753322613261 8.322692500854428 -0.1587399451591639 C 8.352041043190212 -0.17754440901819468 8.392122943070042 -0.1728247766229412 8.415328145243565 -0.14636685482566159 C 8.41972888355806 -0.14135095954247595 8.42328198083208 -0.1357240220529301 8.426047101119448 -0.12966091975615068 C 8.428577679953868 -0.1241101053697541 8.43068649564922 -0.11830006095641682 8.431534136689692 -0.11223284389730503 C 8.433373435452271 -0.09904503062198913 8.432075227936402 -0.08431212409086009 8.425896912294315 -0.07231553451077169 C 8.418329864365045 -0.057623775602966554 8.406226290964316 -0.046351384193379114 8.394744046675775 -0.03474775441603406 C 8.379574975337412 -0.019414092584375847 8.364031460626803 -0.004458988887297677 8.348843872857945 0.010858213895031 C 8.311082698933586 0.04894033928131758 8.272422449439597 0.08612544647914272 8.234720939569057 0.12426312115691662 C 8.226789735173371 0.13228690770508067 8.21873714528888 0.14017902185860825 8.210534366579257 0.1479250619493359 C 8.200156935976965 0.15772436844392707 8.189857685858989 0.16734468277705927 8.18372874736489 0.18051603700304558 C 8.178204678933655 0.1923850689508299 8.175754337964715 0.20546384102433735 8.175809887256202 0.21848500642519142 C 8.175836633211363 0.22512829021083802 8.175958018700168 0.23177363137765084 8.175964190843667 0.2384189725444637 C 8.175966248224833 0.24156470834757726 8.176453847561222 0.245405838984865 8.175727592009554 0.2484589926354998 Z M 8.12615705019123 0.08458652536682815 C 8.125412278209067 0.08993983116126991 8.125762033007321 0.09549887507233135 8.127333872218294 0.1006834756111451 C 8.12907235930373 0.10641945430249933 8.131831307447598 0.1119887851193917 8.136098315986288 0.11628253961324259 C 8.138941616757972 0.11914435681542118 8.142212852812223 0.12131283656459169 8.1458112124719 0.12310893032268072 C 8.167921887865008 0.13414060813582324 8.195334434523401 0.11971630877962364 8.198794949644943 0.09520672694673149 C 8.202337760013133 0.07011079148147364 8.179015287113137 0.047033146940253956 8.153834999020065 0.05373198001738788 C 8.150201663880562 0.054698949165499944 8.146658853512372 0.05583462356924007 8.143416420794448 0.05778707829596008 C 8.13839641074893 0.06081348599143427 8.134514132488318 0.06516073239560627 8.1313869131157 0.07006141433348495 C 8.12856418615568 0.07449095598430477 8.12688124836173 0.07939575268451582 8.12615705019123 0.08458652536682815 Z M 8.205004126004523 0.012561725500641274 C 8.204063902811571 0.017250497178401714 8.204399255941661 0.021725301214877923 8.205275700318461 0.026393499080976435 C 8.20609865278494 0.030773663583807565 8.207913262973523 0.03483699138704455 8.210275136552317 0.03859788415885068 C 8.212536198453966 0.042194186437361114 8.215513229001452 0.04543661915528591 8.218881161970515 0.048028919424692784 C 8.240572131605719 0.06471428068254176 8.272922393062982 0.05092982686902903 8.278150198606287 0.02470850390586199 C 8.279071905368742 0.020079396281921125 8.279001954409091 0.01512933719605375 8.27806173121614 0.010506401715611513 C 8.277144139216016 0.006011023867473375 8.275485889996062 0.0016905234184619589 8.272986171879134 -0.00216706626815541 C 8.270256027071593 -0.006380582896524656 8.266960102443347 -0.010164106861158984 8.262779503913636 -0.012990948583512157 C 8.24652002055719 -0.02398765091682936 8.224668575191023 -0.01957045355300674 8.212702846328428 -0.004356119828987842 C 8.20881851068665 0.0005857097322147231 8.20623855470424 0.0064019262890506745 8.205004126004523 0.012561725500641274 Z M 8.280510014803912 -0.0655817259538124 C 8.280152030480995 -0.05969761581849206 8.281081966768115 -0.05409330952177438 8.283110544597985 -0.04856101156587353 C 8.284824343109426 -0.04388046941277782 8.287466020526821 -0.03954556729560296 8.290833953495884 -0.03587314191394325 C 8.293469458769781 -0.03299898042476754 8.29654730099441 -0.030659738038802786 8.299983127541958 -0.028822496657389812 C 8.323136895186327 -0.016432947274557963 8.352841364463863 -0.03455847534874404 8.35445435129816 -0.06007411657190592 C 8.355357541630122 -0.07438114520163239 8.34619602329705 -0.0896263396431442 8.333094620030716 -0.09554131049595749 C 8.315516355346737 -0.10347662965397517 8.292965400384064 -0.09658851750955122 8.28424416162056 -0.0791686711753703 C 8.282137403306374 -0.07496338407166583 8.280795990786014 -0.07029312882440106 8.280510014803912 -0.0655817259538124 Z" fill="#faffff" transform="matrix(1,0,0,1,0,0)" fill-rule="evenodd"></path></g><g clip-path="url(#SvgjsClipPath1000295723fa-2976-4daf-a394-d0e11264bd32)"><path d=" M 8.112135997543605 0.20911774997550137 C 8.114551363032719 0.20821250226237514 8.117754705508487 0.20873096231625649 8.120324374585065 0.20871038850459456 C 8.125488401312216 0.2086712982624368 8.131687290765965 0.20737103336540097 8.136713472954982 0.20857871610995804 C 8.140219250462179 0.21068135966181023 8.143202453153163 0.2143249817071432 8.146109532740999 0.2171723972411584 C 8.152542963647694 0.22347827051554886 8.158803574536428 0.23001251309938714 8.16477820944306 0.23675455118101119 C 8.167181230645177 0.23946823693922364 8.169460808977322 0.24228890651807822 8.171892633515766 0.24497584632113012 C 8.173005676726678 0.24620204549618285 8.174124892081089 0.2479220161511227 8.175727592009554 0.2484589926354998 C 8.176511454233875 0.25609804890558524 8.175910698933347 0.26400867948960854 8.175906584171013 0.27168476862068563 C 8.175894239884016 0.28608643678405715 8.17589835464635 0.30048810494742867 8.175896297265183 0.3148897731108001 C 8.175894239884016 0.33614869270110254 8.175910698933347 0.3574076122914051 8.17592510060151 0.3786685892628738 C 8.175933330126174 0.38869832244807884 8.176435331130726 0.39888853136424735 8.175995051561161 0.4088956333566242 C 8.17508157432337 0.4086940100023371 8.17417221184791 0.40710776912319996 8.173579686072046 0.40642060381369055 C 8.17185765803594 0.40441671455781575 8.170102711901174 0.40243545649476903 8.168339536241746 0.40046654271871956 C 8.16146376838432 0.39278222406297786 8.153987245226363 0.38556287355079627 8.146819329243336 0.3781501292089923 C 8.13849927980724 0.36954204640962857 8.129880910102045 0.3612322838793632 8.121622582100935 0.3525645370261799 C 8.11867229750861 0.3494702357522212 8.11355559054828 0.34614139302531616 8.111681316305877 0.3422694016705354 C 8.110350190691348 0.3395166256701652 8.111298643408963 0.3343608284676783 8.11131098769596 0.3313529372026999 C 8.111345963175786 0.3226995920176798 8.111448832234096 0.31404624683265975 8.111475578189257 0.3053929016476397 C 8.11153318486191 0.28571405079297557 8.112148341830602 0.26601051136431725 8.112156571355268 0.24630902931682513 C 8.112162743498766 0.23405732447212835 8.111113479104006 0.22131390552871077 8.112135997543605 0.20911774997550137 Z" fill="#82f8fe" transform="matrix(1,0,0,1,0,0)" fill-rule="evenodd"></path></g><g clip-path="url(#SvgjsClipPath1000295723fa-2976-4daf-a394-d0e11264bd32)"><path d=" M 8.12615705019123 0.08458652536682815 C 8.12688124836173 0.07939575268451582 8.12856418615568 0.07449095598430477 8.1313869131157 0.07006141433348495 C 8.134514132488318 0.06516073239560627 8.13839641074893 0.06081348599143427 8.143416420794448 0.05778707829596008 C 8.146658853512372 0.05583462356924007 8.150201663880562 0.054698949165499944 8.153834999020065 0.05373198001738788 C 8.179015287113137 0.047033146940253956 8.202337760013133 0.07011079148147364 8.198794949644943 0.09520672694673149 C 8.195334434523401 0.11971630877962364 8.167921887865008 0.13414060813582324 8.1458112124719 0.12310893032268072 C 8.142212852812223 0.12131283656459169 8.138941616757972 0.11914435681542118 8.136098315986288 0.11628253961324259 C 8.131831307447598 0.1119887851193917 8.12907235930373 0.10641945430249933 8.127333872218294 0.1006834756111451 C 8.125762033007321 0.09549887507233135 8.125412278209067 0.08993983116126991 8.12615705019123 0.08458652536682815 Z" fill="#0f3755" transform="matrix(1,0,0,1,0,0)" fill-rule="evenodd"></path></g><g clip-path="url(#SvgjsClipPath1000295723fa-2976-4daf-a394-d0e11264bd32)"><path d=" M 8.205004126004523 0.012561725500641274 C 8.20623855470424 0.0064019262890506745 8.20881851068665 0.0005857097322147231 8.212702846328428 -0.004356119828987842 C 8.224668575191023 -0.01957045355300674 8.24652002055719 -0.02398765091682936 8.262779503913636 -0.012990948583512157 C 8.266960102443347 -0.010164106861158984 8.270256027071593 -0.006380582896524656 8.272986171879134 -0.00216706626815541 C 8.275485889996062 0.0016905234184619589 8.277144139216016 0.006011023867473375 8.27806173121614 0.010506401715611513 C 8.279001954409091 0.01512933719605375 8.279071905368742 0.020079396281921125 8.278150198606287 0.02470850390586199 C 8.272922393062982 0.05092982686902903 8.240572131605719 0.06471428068254176 8.218881161970515 0.048028919424692784 C 8.215513229001452 0.04543661915528591 8.212536198453966 0.042194186437361114 8.210275136552317 0.03859788415885068 C 8.207913262973523 0.03483699138704455 8.20609865278494 0.030773663583807565 8.205275700318461 0.026393499080976435 C 8.204399255941661 0.021725301214877923 8.204063902811571 0.017250497178401714 8.205004126004523 0.012561725500641274 Z" fill="#0f3657" transform="matrix(1,0,0,1,0,0)" fill-rule="evenodd"></path></g><g clip-path="url(#SvgjsClipPath1000295723fa-2976-4daf-a394-d0e11264bd32)"><path d=" M 8.280510014803912 -0.0655817259538124 C 8.280795990786014 -0.07029312882440106 8.282137403306374 -0.07496338407166583 8.28424416162056 -0.0791686711753703 C 8.292965400384064 -0.09658851750955122 8.315516355346737 -0.10347662965397517 8.333094620030716 -0.09554131049595749 C 8.34619602329705 -0.0896263396431442 8.355357541630122 -0.07438114520163239 8.35445435129816 -0.06007411657190592 C 8.352841364463863 -0.03455847534874404 8.323136895186327 -0.016432947274557963 8.299983127541958 -0.028822496657389812 C 8.29654730099441 -0.030659738038802786 8.293469458769781 -0.03299898042476754 8.290833953495884 -0.03587314191394325 C 8.287466020526821 -0.03954556729560296 8.284824343109426 -0.04388046941277782 8.283110544597985 -0.04856101156587353 C 8.281081966768115 -0.05409330952177438 8.280152030480995 -0.05969761581849206 8.280510014803912 -0.0655817259538124 Z" fill="#0a3759" transform="matrix(1,0,0,1,0,0)" fill-rule="evenodd"></path></g></g><g><path d=" M 0.6525 0.40299999999999997 Q 0.6920000000000001 0.44799999999999995 0.6920000000000001 0.52 Q 0.6920000000000001 0.609 0.627 0.6569999999999999 Q 0.562 0.705 0.434 0.705 L 0.122 0.705 L 0.122 0.004999999999999893 L 0.41400000000000003 0.004999999999999893 Q 0.528 0.004999999999999893 0.5915 0.05149999999999999 Q 0.655 0.09799999999999998 0.655 0.18399999999999994 Q 0.655 0.24399999999999994 0.6235 0.285 Q 0.592 0.32599999999999996 0.538 0.344 Q 0.613 0.35799999999999993 0.6525 0.40299999999999997 M 0.17300000000000001 0.04899999999999993 L 0.17300000000000001 0.32799999999999996 L 0.41200000000000003 0.32799999999999996 Q 0.504 0.32799999999999996 0.5535 0.2924999999999999 Q 0.603 0.25699999999999995 0.603 0.18799999999999994 Q 0.603 0.12 0.5535 0.08449999999999991 Q 0.504 0.04899999999999993 0.41200000000000003 0.04899999999999993 L 0.17300000000000001 0.04899999999999993 M 0.5885 0.6255 Q 0.641 0.59 0.641 0.516 Q 0.641 0.44199999999999995 0.5885 0.407 Q 0.536 0.37199999999999994 0.434 0.37199999999999994 L 0.17300000000000001 0.37199999999999994 L 0.17300000000000001 0.6609999999999999 L 0.434 0.6609999999999999 Q 0.536 0.6609999999999999 0.5885 0.6255 M 1.3920141601562501 0.705 L 1.22501416015625 0.471 Q 1.18801416015625 0.476 1.15701416015625 0.476 L 0.9570141601562501 0.476 L 0.9570141601562501 0.705 L 0.90601416015625 0.705 L 0.90601416015625 0.004999999999999893 L 1.15701416015625 0.004999999999999893 Q 1.28901416015625 0.004999999999999893 1.36401416015625 0.0674999999999999 Q 1.43901416015625 0.1299999999999999 1.43901416015625 0.24099999999999994 Q 1.43901416015625 0.32399999999999995 1.39651416015625 0.38049999999999995 Q 1.35401416015625 0.43699999999999994 1.2750141601562501 0.45999999999999996 L 1.45001416015625 0.705 L 1.3920141601562501 0.705 M 1.15701416015625 0.43099999999999994 Q 1.26901416015625 0.43099999999999994 1.32801416015625 0.38149999999999995 Q 1.38701416015625 0.33199999999999996 1.38701416015625 0.24099999999999994 Q 1.38701416015625 0.1499999999999999 1.32801416015625 0.10049999999999992 Q 1.26901416015625 0.050999999999999934 1.15701416015625 0.050999999999999934 L 0.9570141601562501 0.050999999999999934 L 0.9570141601562501 0.43099999999999994 L 1.15701416015625 0.43099999999999994 M 1.65798486328125 0.004999999999999893 L 1.70898486328125 0.004999999999999893 L 1.70898486328125 0.705 L 1.65798486328125 0.705 L 1.65798486328125 0.004999999999999893 M 2.4849677734375 0.35799999999999993 L 2.5339677734375003 0.35799999999999993 L 2.5339677734375003 0.62 Q 2.4879677734375 0.6639999999999999 2.4224677734375 0.6869999999999999 Q 2.3569677734375 0.71 2.2839677734375 0.71 Q 2.1799677734375003 0.71 2.0964677734375 0.6639999999999999 Q 2.0129677734375 0.618 1.9654677734375001 0.5369999999999999 Q 1.9179677734375 0.45599999999999996 1.9179677734375 0.3549999999999999 Q 1.9179677734375 0.25399999999999995 1.9654677734375001 0.17299999999999993 Q 2.0129677734375 0.09199999999999997 2.0964677734375 0.04599999999999993 Q 2.1799677734375003 0 2.2849677734375002 0 Q 2.3619677734375 0 2.4264677734375 0.024499999999999966 Q 2.4909677734375 0.04899999999999993 2.5369677734375 0.09599999999999997 L 2.5049677734375 0.1299999999999999 Q 2.4609677734375 0.08599999999999997 2.4064677734375 0.06649999999999989 Q 2.3519677734375 0.04699999999999993 2.2859677734375 0.04699999999999993 Q 2.1959677734375003 0.04699999999999993 2.1234677734375 0.08699999999999997 Q 2.0509677734375003 0.127 2.0099677734375 0.1974999999999999 Q 1.9689677734375002 0.26799999999999996 1.9689677734375002 0.3549999999999999 Q 1.9689677734375002 0.44099999999999995 2.0104677734375 0.5115 Q 2.0519677734375 0.582 2.1239677734375 0.6224999999999999 Q 2.1959677734375003 0.6629999999999999 2.2859677734375 0.6629999999999999 Q 2.4059677734375002 0.6629999999999999 2.4849677734375 0.599 L 2.4849677734375 0.35799999999999993 M 3.3599780273437503 0.004999999999999893 L 3.3599780273437503 0.705 L 3.30897802734375 0.705 L 3.30897802734375 0.37199999999999994 L 2.84097802734375 0.37199999999999994 L 2.84097802734375 0.705 L 2.78997802734375 0.705 L 2.78997802734375 0.004999999999999893 L 2.84097802734375 0.004999999999999893 L 2.84097802734375 0.32699999999999996 L 3.30897802734375 0.32699999999999996 L 3.30897802734375 0.004999999999999893 L 3.3599780273437503 0.004999999999999893 M 3.7700039062500004 0.050999999999999934 L 3.51800390625 0.050999999999999934 L 3.51800390625 0.004999999999999893 L 4.07300390625 0.004999999999999893 L 4.07300390625 0.050999999999999934 L 3.82100390625 0.050999999999999934 L 3.82100390625 0.705 L 3.7700039062500004 0.705 L 3.7700039062500004 0.050999999999999934 M 4.8929921875 0.705 L 4.8919921875000005 0.10599999999999998 L 4.5989921875 0.612 L 4.5739921875 0.612 L 4.2809921875 0.10799999999999998 L 4.2809921875 0.705 L 4.2309921875 0.705 L 4.2309921875 0.004999999999999893 L 4.2739921875 0.004999999999999893 L 4.5869921875 0.5459999999999999 L 4.8999921875000005 0.004999999999999893 L 4.9419921875 0.004999999999999893 L 4.9429921875 0.705 L 4.8929921875 0.705 M 5.21898583984375 0.004999999999999893 L 5.26998583984375 0.004999999999999893 L 5.26998583984375 0.705 L 5.21898583984375 0.705 L 5.21898583984375 0.004999999999999893 M 6.11596875 0.004999999999999893 L 6.11596875 0.705 L 6.073968750000001 0.705 L 5.59696875 0.09699999999999998 L 5.59696875 0.705 L 5.54596875 0.705 L 5.54596875 0.004999999999999893 L 5.58896875 0.004999999999999893 L 6.06496875 0.613 L 6.06496875 0.004999999999999893 L 6.11596875 0.004999999999999893 M 6.39199462890625 0.004999999999999893 L 6.66899462890625 0.004999999999999893 Q 6.77799462890625 0.004999999999999893 6.8624946289062505 0.04999999999999993 Q 6.94699462890625 0.09499999999999997 6.9939946289062505 0.1745 Q 7.04099462890625 0.25399999999999995 7.04099462890625 0.3549999999999999 Q 7.04099462890625 0.45599999999999996 6.9939946289062505 0.5355 Q 6.94699462890625 0.615 6.8624946289062505 0.6599999999999999 Q 6.77799462890625 0.705 6.66899462890625 0.705 L 6.39199462890625 0.705 L 6.39199462890625 0.004999999999999893 M 6.66499462890625 0.6589999999999999 Q 6.76199462890625 0.6589999999999999 6.83599462890625 0.6204999999999999 Q 6.90999462890625 0.582 6.94999462890625 0.5129999999999999 Q 6.98999462890625 0.44399999999999995 6.98999462890625 0.3549999999999999 Q 6.98999462890625 0.26599999999999996 6.94999462890625 0.19699999999999995 Q 6.90999462890625 0.128 6.83599462890625 0.08949999999999991 Q 6.76199462890625 0.050999999999999934 6.66499462890625 0.050999999999999934 L 6.44299462890625 0.050999999999999934 L 6.44299462890625 0.6589999999999999 L 6.66499462890625 0.6589999999999999" fill="#ffffff" fill-rule="nonzero"></path></g><g><path d=" M 9.15926481279677 0.508 L 8.75326481279677 0.508 L 8.664264812796771 0.705 L 8.609264812796772 0.705 L 8.93126481279677 0.004999999999999893 L 8.982264812796771 0.004999999999999893 L 9.30426481279677 0.705 L 9.24926481279677 0.705 L 9.15926481279677 0.508 M 9.14026481279677 0.46499999999999997 L 8.956264812796771 0.06099999999999994 L 8.773264812796771 0.46499999999999997 L 9.14026481279677 0.46499999999999997 M 9.46328190264052 0.004999999999999893 L 9.514281902640521 0.004999999999999893 L 9.514281902640521 0.705 L 9.46328190264052 0.705 L 9.46328190264052 0.004999999999999893" fill="#ffffff" fill-rule="nonzero"></path></g><g></g></g><defs><clipPath id="SvgjsClipPath1002"><path d=" M 7.2279833984375 -0.2442499999999999 h 1.2762814143592718 v 1.1985 h -1.2762814143592718 Z"></path></clipPath><clipPath id="SvgjsClipPath1000295723fa-2976-4daf-a394-d0e11264bd32"><path d=" M 7.2279833984375 -0.2442499999999998 L 8.504264812796771 -0.2442499999999998 L 8.504264812796771 0.95425 L 7.2279833984375 0.95425 Z"></path></clipPath></defs></svg>